<svg width="30" height="40" viewBox="0 0 30 40" fill="none" xmlns="http://www.w3.org/2000/svg">
<path d="M27.869 20.3047L27.8257 20.2223C27.5251 19.731 27.0445 18.7179 27.2035 17.4627C27.2714 16.9273 27.447 16.4099 27.7368 15.9055C28.0554 15.3065 28.3134 14.6742 28.5035 14.026C28.6299 13.5975 28.7282 13.156 28.7997 12.6791C29.1805 9.02125 28.3286 6.07013 26.2663 3.90738C22.4003 -0.147151 15.6715 0.0298872 14.9171 0.0638496C14.1598 -0.00913342 7.39548 -0.543138 3.41971 3.41312C1.22155 5.599 0.316849 8.71703 0.729456 12.6791C0.828452 13.6329 1.39786 14.9199 1.56984 15.2913L1.63705 15.4069C2.16093 16.1418 2.4442 16.8984 2.48105 17.6564C2.52874 18.6564 2.12264 19.4593 1.94921 19.8018L1.88707 19.9253C-0.657221 25.2712 -0.143449 31.3223 3.19498 35.3406C6.84919 39.7391 12.3598 39.9118 14.4336 39.9769L14.7371 39.987C14.9272 39.9949 15.1411 40 15.3766 40C17.9238 40 22.9307 39.4241 26.3342 35.3428C29.5946 31.4321 30.1972 25.5299 27.869 20.3047ZM6.73285 21.9508C4.53035 24.7133 4.4104 28.5316 6.44164 31.2363C6.68082 31.5549 6.61651 32.008 6.29784 32.2479C6.16777 32.3455 6.0153 32.3924 5.86428 32.3924C5.64461 32.3924 5.42783 32.2927 5.28547 32.1041C2.86042 28.8733 2.98976 24.3274 5.60197 21.0504C5.85055 20.7383 6.30579 20.6862 6.61723 20.9355C6.92867 21.1848 6.9807 21.6386 6.73285 21.9508ZM23.2494 14.1987C22.7371 14.6142 21.8252 15.0326 20.4031 14.667L20.2672 14.6178C20.2434 14.6055 17.7923 13.4291 16.0942 13.2456C15.5407 13.1863 13.6431 13.1871 12.9595 13.3186C11.3069 13.6358 9.28292 14.6084 9.26341 14.6178L9.12756 14.667C8.74386 14.7652 8.39628 14.8064 8.08556 14.8064C7.24084 14.8064 6.65481 14.5015 6.2805 14.198C4.80133 12.997 4.86492 10.5272 4.8772 10.2497C5.11711 7.14609 7.48436 5.30706 11.5454 5.04548C13.1821 4.9407 15.4381 4.98261 16.931 5.01007L17.2677 5.01585C21.776 5.09534 24.3991 6.94521 24.6534 10.2244L24.6549 10.249C24.6657 10.5272 24.7293 12.9977 23.2494 14.1987Z" fill="#FE1646"/>
</svg>
