<svg width="54" height="40" viewBox="0 0 54 40" fill="none" xmlns="http://www.w3.org/2000/svg">
<path d="M3.5555 35C1.72217 35 0.222168 33.5 0.222168 31.6667V8.33333C0.222168 6.5 1.72217 5 3.5555 5C5.38883 5 6.88883 6.5 6.88883 8.33333V31.6667C6.88883 33.5 5.38883 35 3.5555 35ZM10.2222 39.1667C8.38883 39.1667 6.88883 37.6667 6.88883 35.8333V4.16667C6.88883 2.33333 8.38883 0.833333 10.2222 0.833333C12.0555 0.833333 13.5555 2.33333 13.5555 4.16667V35.8333C13.5555 37.6667 12.0555 39.1667 10.2222 39.1667ZM50.2222 35C52.0555 35 53.5555 33.5 53.5555 31.6667V8.33333C53.5555 6.5 52.0555 5 50.2222 5C48.3888 5 46.8888 6.5 46.8888 8.33333V31.6667C46.8888 33.5 48.3888 35 50.2222 35ZM43.5555 40C45.3888 40 46.8888 38.5 46.8888 36.6667V3.33333C46.8888 1.5 45.3888 0 43.5555 0C41.7222 0 40.2222 1.5 40.2222 3.33333V36.6667C40.2222 38.5 41.7222 40 43.5555 40Z" fill="#FE1646"/>
<path d="M36.8887 17.5002H16.8887V22.5002H36.8887V17.5002Z" fill="#FE1646"/>
</svg>
