<svg width="471" height="743" viewBox="0 0 471 743" fill="none" xmlns="http://www.w3.org/2000/svg">
<mask id="mask0_125_2651" style="mask-type:alpha" maskUnits="userSpaceOnUse" x="0" y="0" width="744" height="743">
<path d="M743.729 371.437C743.729 166.298 577.431 9.68674e-05 372.292 0.000105834C167.153 0.000114801 0.854467 166.298 0.854476 371.437C0.854485 576.576 167.153 742.874 372.292 742.874C577.431 742.874 743.729 576.576 743.729 371.437Z" fill="black"/>
</mask>
<g mask="url(#mask0_125_2651)">
<path d="M-9.91699 61.822C68.2987 55.4497 140.492 27.0122 219.307 20.3152C275.033 15.5672 329.259 2.67291 385.21 0.948662C535.894 -3.72429 687.577 0.823717 838.261 0.948662" stroke="white" stroke-width="0.75" stroke-miterlimit="10"/>
<path d="M-10.0918 73.8669C67.3742 66.3702 140.242 42.3308 218.058 35.2089C274.908 30.0112 329.159 14.7678 386.509 12.9686C536.244 8.2457 688.302 13.3934 838.186 14.5429" stroke="white" stroke-width="0.75" stroke-miterlimit="10"/>
<path d="M-10.3916 83.5124C65.65 76.3155 140.242 59.0731 216.209 50.8267C275.258 44.4295 330.209 24.4133 389.908 22.5141C454.729 20.49 518.302 32.035 582.948 32.7097C667.911 33.5843 752.874 27.5369 838.086 28.1117" stroke="white" stroke-width="0.75" stroke-miterlimit="10"/>
<path d="M-10.8418 91.1843C63.5006 85.2619 140.017 76.6656 213.86 67.0449C275.907 58.8485 331.958 32.0602 395.28 30.0611C460.252 28.1369 522.049 47.4035 586.546 50.0523C670.509 53.4758 754.248 41.681 838.186 41.681" stroke="white" stroke-width="0.75" stroke-miterlimit="10"/>
<path d="M-11.3911 97.2812C61.8018 93.383 138.543 93.5829 211.011 83.7122C276.957 74.7411 334.107 37.7324 401.853 36.0331C467.324 34.3588 526.573 62.7214 590.945 68.119C673.259 75.016 755.872 56.2742 838.136 55.2996" stroke="white" stroke-width="0.75" stroke-miterlimit="10"/>
<path d="M-12.041 102.254C59.7275 100.905 136.944 112.949 207.862 100.73C277.707 88.6849 337.056 42.0303 409.499 40.7559C475.77 39.6564 531.82 77.9146 596.067 86.6858C676.032 97.581 758.096 71.0676 838.111 68.8436" stroke="white" stroke-width="0.75" stroke-miterlimit="10"/>
<path d="M-12.7407 106.502C58.2531 108.027 134.17 132.691 204.664 117.947C278.132 102.579 340.904 45.1543 417.87 44.8794C485.341 44.6295 537.693 93.1832 601.765 105.678C679.081 120.671 760.895 86.0863 838.211 82.4629" stroke="white" stroke-width="0.75" stroke-miterlimit="10"/>
<path d="M-13.4404 110.476C57.5534 115.073 129.947 152.707 201.265 135.265C278.357 116.398 344.902 48.9775 426.417 48.6276C494.737 48.3528 544.14 108.601 607.512 124.769C681.88 143.861 763.744 101.03 838.186 96.0568" stroke="white" stroke-width="0.75" stroke-miterlimit="10"/>
<path d="M-14.165 114.549C57.6035 122.321 124.524 172.823 197.917 152.532C278.182 130.342 349.276 52.4262 434.838 52.5761C504.208 52.5761 550.612 123.92 613.21 143.836C684.803 166.626 766.517 115.973 838.111 109.701" stroke="white" stroke-width="0.75" stroke-miterlimit="10"/>
<path d="M-14.915 119.147C58.028 129.967 118.327 192.764 194.643 169.6C277.682 144.386 353.573 56.2493 442.709 56.924C513.153 57.4488 556.684 139.388 618.507 162.503C687.802 188.541 768.816 130.567 838.111 123.17" stroke="white" stroke-width="0.75" stroke-miterlimit="10"/>
<path d="M-15.4146 124.794C58.8279 138.288 112.179 212.256 191.77 186.467C277.232 158.704 357.622 61.1721 449.881 62.4216C521.525 63.3961 562.107 154.881 623.33 180.87C691.026 209.607 770.766 145.085 838.236 136.814" stroke="white" stroke-width="0.75" stroke-miterlimit="10"/>
<path d="M-15.9141 131.791C59.7028 147.259 106.332 231.023 189.221 202.885C231.327 188.591 272.01 159.879 309.593 137.039C349.576 112.699 405.726 68.3689 455.729 69.2935C528.772 70.618 566.181 170.324 627.229 198.537C694.049 229.398 771.89 159.254 838.186 150.408" stroke="white" stroke-width="0.75" stroke-miterlimit="10"/>
<path d="M-16.2642 140.612C60.7521 157.005 101.184 248.515 187.172 218.753C230.428 203.76 272.409 173.173 310.792 149.234C351.225 123.995 408.899 76.9152 459.977 77.9898C534.769 79.5891 568.504 185.593 629.902 215.429C696.598 247.665 772.34 173.148 838.061 164.077" stroke="white" stroke-width="0.75" stroke-miterlimit="10"/>
<path d="M-16.4644 151.633C62.1012 167.601 97.2857 264.409 185.722 233.922C229.678 218.754 272.709 186.593 311.442 162.003C352.324 136.065 410.248 87.836 462.226 88.9605C539.192 90.6597 568.629 200.612 631.401 231.048C698.872 263.759 772.14 186.343 838.186 177.547" stroke="white" stroke-width="0.75" stroke-miterlimit="10"/>
<path d="M-16.7144 165.052C61.5513 181.095 97.2357 277.652 185.147 246.966C229.303 231.548 272.484 199.887 311.667 175.422C352.699 149.809 410.998 101.78 462.775 102.454C539.991 103.479 568.529 214.73 631.276 245.042C699.471 278.002 771.565 199.612 838.186 191.165" stroke="white" stroke-width="0.75" stroke-miterlimit="10"/>
<path d="M-18.3135 179.471C58.7027 195.838 99.3599 286.699 184.997 256.587C229.303 241.019 272.459 211.731 312.441 188.167C353.748 163.952 413.672 116.923 464.6 117.323C540.067 117.898 569.554 228.449 630.427 258.561C698.597 292.246 771.415 213.131 838.211 204.66" stroke="white" stroke-width="0.75" stroke-miterlimit="10"/>
<path d="M-21.2119 194.514C55.3295 210.082 100.959 292.471 184.473 264.258C229.128 249.265 272.484 222.526 313.741 200.411C355.773 177.921 417.346 132.941 467.724 133.565C541.441 134.49 569.904 242.742 629.103 272.679C696.973 306.989 771.54 226.824 838.186 218.328" stroke="white" stroke-width="0.75" stroke-miterlimit="10"/>
<path d="M-25.1602 210.132C51.2563 223.851 102.284 295.644 183.998 270.106C228.978 256.062 273.009 232.297 315.415 212.081C358.547 191.515 421.794 149.608 471.847 150.808C543.89 152.682 569.854 257.236 627.404 286.998C694.874 321.833 771.64 240.394 838.186 231.847" stroke="white" stroke-width="0.75" stroke-miterlimit="10"/>
<path d="M-29.9082 226.15C46.5333 237.27 103.483 296.894 183.473 274.829C229.053 262.334 273.734 241.593 317.339 223.651C361.845 205.359 426.592 167.026 476.595 169.3C547.164 172.499 569.054 272.48 625.429 301.742C692.575 336.727 771.64 254.138 838.211 245.442" stroke="white" stroke-width="0.75" stroke-miterlimit="10"/>
<path d="M-35.2559 242.443C41.1356 250.489 104.433 296.969 182.798 278.652C228.978 267.857 274.483 250.439 319.239 235.121C365.343 219.353 431.364 185.268 481.517 188.716C552.436 193.714 565.656 290.147 623.155 316.785C693.674 349.446 768.667 268.332 838.186 259.086" stroke="white" stroke-width="0.75" stroke-miterlimit="10"/>
<path d="M-40.8535 258.885C31.1649 263.233 99.0851 295.644 171.853 283.999C232.277 274.329 291.526 254.562 350.5 238.744C390.182 228.124 442.959 206.258 484.716 211.056C557.334 219.453 564.131 310.588 626.704 335.002C694.774 361.54 771.215 281.575 838.186 272.679" stroke="white" stroke-width="0.75" stroke-miterlimit="10"/>
<path d="M-46.5508 275.378C26.2673 276.703 98.0108 295.819 170.854 286.973C231.902 279.476 292.251 264.758 352.499 252.763C393.506 244.592 446.433 226.4 488.689 232.022C558.659 241.318 563.657 326.406 623.93 350.17C691.725 376.934 771.365 295.194 838.161 286.248" stroke="white" stroke-width="0.75" stroke-miterlimit="10"/>
<path d="M-52.0234 291.747C21.8941 290.222 96.0366 296.469 169.829 290.347C231.452 285.349 292.75 275.354 354.023 267.382C396.33 261.81 448.982 247.391 491.813 253.738C559.009 263.609 563.257 342.499 621.206 365.364C688.977 392.127 771.14 308.989 838.186 299.843" stroke="white" stroke-width="0.75" stroke-miterlimit="10"/>
<path d="M-57.0713 307.914C18.2457 303.866 93.3877 298.043 168.73 294.62C230.802 291.821 292.8 286.948 354.773 282.8C398.279 279.901 450.231 269.356 493.662 276.153C558.234 286.149 562.682 358.917 618.607 380.557C686.802 406.996 770.89 322.782 838.236 313.437" stroke="white" stroke-width="0.75" stroke-miterlimit="10"/>
<path d="M-61.4443 323.732C15.322 317.735 90.464 300.992 167.63 300.218C229.953 299.593 292.275 299.518 354.598 299.168C399.129 298.943 449.806 292.171 493.937 299.168C556.01 309.164 561.957 375.56 616.058 395.651C685.353 421.514 769.941 336.552 838.186 327.031" stroke="white" stroke-width="0.75" stroke-miterlimit="10"/>
<path d="M-64.8931 339.05C13.1727 331.903 87.5401 305.865 166.48 307.589C272.084 309.888 387.908 306.614 492.262 322.832C552.036 332.103 561.082 392.527 613.809 410.644C685.003 435.083 768.366 350.445 838.161 340.675" stroke="white" stroke-width="0.75" stroke-miterlimit="10"/>
<path d="M-67.0918 353.794C8.60001 346.972 79.5439 314.311 156.135 316.66C265.612 320.009 381.337 332.028 489.814 346.647C548.188 354.519 563.482 414.117 617.608 426.762C691.301 443.879 766.218 364.064 838.186 354.294" stroke="white" stroke-width="0.75" stroke-miterlimit="10"/>
<path d="M-67.8916 367.788C8.42493 362.215 77.9944 324.757 155.286 328.705C264.313 334.278 374.139 359.142 482.642 371.436C540.117 377.959 562.382 430.96 616.433 441.006C693.25 455.3 763.569 377.934 838.186 367.788" stroke="white" stroke-width="0.75" stroke-miterlimit="10"/>
<path d="M-67.0171 381.382C8.74967 374.635 80.5682 340.525 157.21 344.423C263.363 349.795 371.84 370.037 477.294 383.456C534.644 390.728 562.882 442.83 617.558 452.575C693.374 466.094 764.593 392.277 838.186 381.357" stroke="white" stroke-width="0.75" stroke-miterlimit="10"/>
<path d="M-64.543 395.001C14.2974 387.854 90.8389 358.816 170.479 363.689C269.286 369.737 371.116 380.957 469.148 394.401C526.248 402.222 559.833 448.352 614.084 460.147C690.826 476.815 764.019 406.246 838.236 394.951" stroke="white" stroke-width="0.75" stroke-miterlimit="10"/>
<path d="M-60.7446 408.67C18.4456 402.497 97.0861 381.581 176.651 384.605C270.41 388.129 367.992 392.702 461.077 404.272C520.026 411.593 560.733 455.724 617.458 466.744C693.649 481.463 764.044 419.09 838.086 408.57" stroke="white" stroke-width="0.75" stroke-miterlimit="10"/>
<path d="M-55.897 422.339C112.779 413.043 283.454 396.526 452.38 413.618C514.003 419.865 561.932 461.447 621.856 471.543C697.023 484.237 764.743 431.235 838.136 422.114" stroke="white" stroke-width="0.75" stroke-miterlimit="10"/>
<path d="M-50.2993 436.033C30.965 433.959 112.279 434.709 193.519 431.585C275.433 428.412 361.445 417.092 443.234 422.839C507.981 427.412 563.681 463.971 626.929 475.166C699.172 487.96 767.117 442.83 838.186 435.708" stroke="white" stroke-width="0.75" stroke-miterlimit="10"/>
<path d="M-44.2271 449.727C38.0369 450.402 121.1 464.021 203.164 456.699C278.956 449.952 357.672 429.786 433.788 432.335C501.908 434.634 565.406 467.319 632.301 478.04C702.271 489.135 768.766 454.225 838.136 449.302" stroke="white" stroke-width="0.75" stroke-miterlimit="10"/>
<path d="M-37.9297 463.446C44.5341 466.969 130.996 494.282 213.285 482.288C283.254 472.117 353.649 442.98 424.517 442.48C496.061 441.98 567.355 471.167 637.999 480.613C705.669 489.684 770.766 465.62 838.186 462.871" stroke="white" stroke-width="0.75" stroke-miterlimit="10"/>
<path d="M-31.6826 477.14C52.4055 483.637 146.839 526.193 230.377 506.227C290.701 491.808 352.399 453.75 414.722 451.926C486.615 449.952 563.831 473.841 635.325 482.463C703.495 490.684 769.991 476.965 838.186 476.465" stroke="white" stroke-width="0.75" stroke-miterlimit="10"/>
<path d="M-25.7852 490.834C58.6528 499.88 155.46 553.457 239.448 531.016C296.274 515.823 346.252 468.344 406.125 464.471C481.092 459.473 565.206 479.589 640.348 486.211C706.244 492.008 772.14 488.485 838.186 490.059" stroke="white" stroke-width="0.75" stroke-miterlimit="10"/>
<path d="M-20.5122 504.528C61.8267 515.324 166.081 581.869 247.72 554.956C300.922 537.464 340.829 484.637 398.554 478.915C476.445 471.218 566.38 486.786 644.971 491.184C709.418 494.758 773.714 500.405 838.186 503.679" stroke="white" stroke-width="0.75" stroke-miterlimit="10"/>
<path d="M-16.1392 518.196C64.2006 530.016 175.302 607.782 254.817 577.645C305.47 558.429 335.682 502.678 392.382 495.731C473.171 485.736 567.105 495.931 649.019 497.83C713.091 499.33 774.514 512.824 838.186 517.222" stroke="white" stroke-width="0.75" stroke-miterlimit="10"/>
<path d="M-12.9155 531.841C40.611 540.063 86.216 559.679 136.344 579.321C174.427 594.314 219.607 615.105 260.39 598.637C309.568 578.771 331.383 523.02 387.834 515.349C471.747 503.904 566.98 507.527 652.143 506.727C716.789 506.078 774.589 525.969 838.086 530.842" stroke="white" stroke-width="0.75" stroke-miterlimit="10"/>
<path d="M-11.1416 545.46C43.3845 553.557 88.5646 574.572 139.092 595.438C176.001 610.782 223.505 633.222 264.038 617.329C312.866 598.187 328.659 545.335 385.484 537.963C472.746 526.643 566.305 521.995 654.491 518.097C720.138 515.198 774.164 539.813 838.186 544.286" stroke="white" stroke-width="0.75" stroke-miterlimit="10"/>
<path d="M-11.0913 558.954C43.6347 566.875 88.6899 588.116 139.268 609.282C175.952 624.625 224.056 647.065 264.663 632.222C313.491 614.38 328.535 564.751 385.035 557.879C473.571 546.959 565.256 537.513 654.442 531.566C720.813 527.168 773.64 553.656 838.186 557.879" stroke="white" stroke-width="0.75" stroke-miterlimit="10"/>
<path d="M-12.7407 572.598C41.3356 580.67 86.7656 601.011 137.194 621.302C174.302 636.296 221.606 657.811 262.314 643.417C310.767 626.275 328.909 579.021 384.135 571.574C471.322 559.829 561.158 549.833 649.019 542.637C717.239 537.039 771.915 565.776 838.261 571.574" stroke="white" stroke-width="0.75" stroke-miterlimit="10"/>
<path d="M-15.8647 586.142C65.9993 598.036 175.526 680 257.99 652.762C306.269 636.819 328.434 593.039 382.286 585.167C467.248 572.672 553.66 560.753 639.123 551.457C710.242 543.735 769.066 576.971 838.186 585.167" stroke="white" stroke-width="0.75" stroke-miterlimit="10"/>
<path d="M-20.1875 599.636C62.8261 610.831 168.58 685.649 252.193 660.71C300.422 646.416 327.435 607.108 379.912 598.737C461.976 585.643 544.015 570.824 626.279 558.904C700.297 548.209 766.218 587.767 838.286 598.737" stroke="white" stroke-width="0.75" stroke-miterlimit="10"/>
<path d="M-25.4102 613.13C59.0028 623.126 160.208 689.647 245.271 667.557C293.1 655.062 326.81 622.351 376.838 612.331C454.904 596.713 532.97 580.495 611.236 565.801C687.377 551.483 763.819 598.637 838.186 612.331" stroke="white" stroke-width="0.75" stroke-miterlimit="10"/>
<path d="M-31.2573 626.6C54.53 635.171 151.163 692.496 237.5 673.654C285.304 663.233 324.687 635.82 373.49 625.925C447.932 610.806 521.475 590.29 595.418 572.898C672.584 554.781 762.42 609.982 838.186 625.925" stroke="white" stroke-width="0.75" stroke-miterlimit="10"/>
<path d="M-37.4053 640.068C48.1572 646.565 136.943 691.995 223.08 680.25C273.059 673.428 319.113 647.565 369.266 638.144C443.134 624.25 513.603 593.613 587.271 578.97C664.487 563.626 762.519 622.201 838.261 639.493" stroke="white" stroke-width="0.75" stroke-miterlimit="10"/>
<path d="M-43.7773 653.538C41.985 658.161 128.397 694.62 214.559 685.599C264.787 680.326 315.465 660.96 365.268 651.439C435.962 637.92 502.708 604.834 572.802 588.741C615.284 578.996 656.241 597.837 696.648 611.231C743.652 626.8 789.982 641.593 838.186 653.113" stroke="white" stroke-width="0.75" stroke-miterlimit="10"/>
<path d="M-49.8994 667.007C35.6381 669.781 120.576 697.693 206.363 691.171C257.191 687.323 311.467 674.229 361.545 664.833C429.29 652.088 493.137 611.281 561.108 601.186C647.045 588.391 753.523 646.291 838.186 666.682" stroke="white" stroke-width="0.75" stroke-miterlimit="10"/>
<path d="M-55.5474 680.501C29.4154 681.65 113.628 701.667 198.791 697.344C252.255 694.172 305.484 687.83 358.196 678.352C424.592 666.757 486.84 627.149 553.311 617.154C640.772 603.985 751.774 660.16 838.186 680.251" stroke="white" stroke-width="0.75" stroke-miterlimit="10"/>
<path d="M-60.4448 693.894C78.944 693.77 216.359 712.711 355.473 691.945C421.694 682.075 484.391 646.315 550.587 637.344C639.848 625.275 749.875 675.078 838.186 693.745" stroke="white" stroke-width="0.75" stroke-miterlimit="10"/>
<path d="M-64.3179 707.489C74.2713 706.115 216.359 723.382 354.598 707.489C423.693 699.518 491.064 667.307 560.408 661.484C648.869 653.988 751 692.371 838.186 707.489" stroke="white" stroke-width="0.75" stroke-miterlimit="10"/>
<path d="M-66.8921 721.033C72.6467 719.609 213.735 729.554 353.124 721.033C426.217 716.585 498.76 696.619 571.928 693.545C659.389 689.847 751.274 711.412 838.186 721.033" stroke="white" stroke-width="0.75" stroke-miterlimit="10"/>
<path d="M-67.8916 734.602C234.126 734.302 536.169 731.803 838.186 734.602" stroke="white" stroke-width="0.75" stroke-miterlimit="10"/>
</g>
</svg>
