<svg width="41" height="40" viewBox="0 0 41 40" fill="none" xmlns="http://www.w3.org/2000/svg">
<path fill-rule="evenodd" clip-rule="evenodd" d="M12.6944 26.6714C12.4277 26.6714 12.1594 26.5864 11.9327 26.4131C11.386 25.9914 11.2827 25.2064 11.7044 24.6598L16.6927 18.1764C16.896 17.9114 17.1977 17.7398 17.5277 17.6981C17.8644 17.6548 18.1944 17.7481 18.456 17.9564L23.156 21.6481L27.2677 16.3431C27.691 15.7948 28.4744 15.6931 29.021 16.1198C29.5677 16.5431 29.6677 17.3281 29.2444 17.8731L24.361 24.1731C24.1577 24.4364 23.8577 24.6081 23.5277 24.6481C23.1944 24.6931 22.8644 24.5964 22.601 24.3914L17.9044 20.7014L13.686 26.1831C13.4394 26.5031 13.0694 26.6714 12.6944 26.6714Z" fill="#FE1646"/>
<mask id="mask0_125_2525" style="mask-type:luminance" maskUnits="userSpaceOnUse" x="29" y="3" width="10" height="10">
<path fill-rule="evenodd" clip-rule="evenodd" d="M29.4927 3.3335H38.3993V12.2417H29.4927V3.3335Z" fill="white"/>
</mask>
<g mask="url(#mask0_125_2525)">
<path fill-rule="evenodd" clip-rule="evenodd" d="M33.946 5.8335C32.8693 5.8335 31.9927 6.7085 31.9927 7.78683C31.9927 8.8635 32.8693 9.74183 33.946 9.74183C35.0227 9.74183 35.8993 8.8635 35.8993 7.78683C35.8993 6.7085 35.0227 5.8335 33.946 5.8335ZM33.946 12.2418C31.491 12.2418 29.4927 10.2435 29.4927 7.78683C29.4927 5.33016 31.491 3.3335 33.946 3.3335C36.4027 3.3335 38.3993 5.33016 38.3993 7.78683C38.3993 10.2435 36.4027 12.2418 33.946 12.2418Z" fill="#FE1646"/>
</g>
<mask id="mask1_125_2525" style="mask-type:luminance" maskUnits="userSpaceOnUse" x="4" y="4" width="34" height="34">
<path fill-rule="evenodd" clip-rule="evenodd" d="M4.00049 4.73682H37.1037V37.8385H4.00049V4.73682Z" fill="white"/>
</mask>
<g mask="url(#mask1_125_2525)">
<path fill-rule="evenodd" clip-rule="evenodd" d="M27.7222 37.8385H13.3822C7.77049 37.8385 4.00049 33.8968 4.00049 28.0301V14.5601C4.00049 8.68515 7.77049 4.73682 13.3822 4.73682H25.4955C26.1855 4.73682 26.7455 5.29682 26.7455 5.98682C26.7455 6.67682 26.1855 7.23682 25.4955 7.23682H13.3822C9.20216 7.23682 6.50049 10.1101 6.50049 14.5601V28.0301C6.50049 32.5385 9.13716 35.3385 13.3822 35.3385H27.7222C31.9022 35.3385 34.6038 32.4701 34.6038 28.0301V16.2985C34.6038 15.6085 35.1638 15.0485 35.8538 15.0485C36.5438 15.0485 37.1038 15.6085 37.1038 16.2985V28.0301C37.1038 33.8968 33.3338 37.8385 27.7222 37.8385Z" fill="#FE1646"/>
</g>
</svg>
