<svg width="23" height="11" viewBox="0 0 23 11" fill="none" xmlns="http://www.w3.org/2000/svg">
<path d="M-0.000173795 5.4986C-0.00017378 5.15638 0.131521 4.82819 0.365942 4.5862C0.600363 4.34422 0.918304 4.20828 1.24983 4.20828L18.2373 4.20828L16.6123 2.54376C16.3769 2.30079 16.2447 1.97125 16.2447 1.62763C16.2447 1.28402 16.3769 0.954476 16.6123 0.711503C16.8477 0.468531 17.1669 0.332031 17.4998 0.332031C17.8327 0.332031 18.1519 0.468531 18.3873 0.711504L22.1373 4.58247C22.3108 4.76392 22.4283 4.99434 22.475 5.24465C22.5217 5.49496 22.4955 5.75394 22.3998 5.98892C22.3061 6.22456 22.1468 6.42627 21.9422 6.56864C21.7375 6.711 21.4966 6.78765 21.2498 6.78892L1.24983 6.78892C0.918304 6.78892 0.600363 6.65298 0.365942 6.41099C0.131521 6.16901 -0.00017381 5.84081 -0.000173795 5.4986Z" fill="white"/>
<path d="M16.2498 9.36969C16.2488 9.19988 16.2803 9.03154 16.3426 8.87433C16.4048 8.71712 16.4964 8.57413 16.6123 8.45357L20.3623 4.5826C20.5976 4.33962 20.9169 4.20312 21.2498 4.20312C21.4146 4.20312 21.5778 4.23664 21.7301 4.30175C21.8824 4.36686 22.0207 4.46229 22.1373 4.5826C22.2538 4.70291 22.3463 4.84573 22.4093 5.00292C22.4724 5.16011 22.5049 5.32859 22.5049 5.49873C22.5049 5.84234 22.3726 6.17188 22.1373 6.41486L18.3873 10.2858C18.2711 10.4068 18.1328 10.5028 17.9805 10.5683C17.8282 10.6338 17.6648 10.6675 17.4998 10.6675C17.3348 10.6675 17.1714 10.6338 17.019 10.5683C16.8667 10.5028 16.7285 10.4068 16.6123 10.2858C16.4964 10.1653 16.4048 10.0223 16.3426 9.86506C16.2803 9.70785 16.2488 9.53951 16.2498 9.36969Z" fill="white"/>
</svg>
