<svg width="40" height="40" viewBox="0 0 40 40" fill="none" xmlns="http://www.w3.org/2000/svg">
<path fill-rule="evenodd" clip-rule="evenodd" d="M34.4445 16.5073H4.73779C4.04779 16.5073 3.48779 15.9473 3.48779 15.2573C3.48779 14.5673 4.04779 14.0073 4.73779 14.0073H34.4445C35.1345 14.0073 35.6945 14.5673 35.6945 15.2573C35.6945 15.9473 35.1345 16.5073 34.4445 16.5073Z" fill="#FE1646"/>
<path fill-rule="evenodd" clip-rule="evenodd" d="M27.0023 23.0161C26.3123 23.0161 25.7456 22.4561 25.7456 21.7661C25.7456 21.0761 26.2973 20.5161 26.9873 20.5161H27.0023C27.6923 20.5161 28.2523 21.0761 28.2523 21.7661C28.2523 22.4561 27.6923 23.0161 27.0023 23.0161Z" fill="#FE1646"/>
<path fill-rule="evenodd" clip-rule="evenodd" d="M19.6063 23.0161C18.9163 23.0161 18.3496 22.4561 18.3496 21.7661C18.3496 21.0761 18.9013 20.5161 19.5913 20.5161H19.6063C20.2963 20.5161 20.8563 21.0761 20.8563 21.7661C20.8563 22.4561 20.2963 23.0161 19.6063 23.0161Z" fill="#FE1646"/>
<path fill-rule="evenodd" clip-rule="evenodd" d="M12.1949 23.0161C11.5049 23.0161 10.9365 22.4561 10.9365 21.7661C10.9365 21.0761 11.4899 20.5161 12.1799 20.5161H12.1949C12.8849 20.5161 13.4449 21.0761 13.4449 21.7661C13.4449 22.4561 12.8849 23.0161 12.1949 23.0161Z" fill="#FE1646"/>
<path fill-rule="evenodd" clip-rule="evenodd" d="M27.0023 29.4939C26.3123 29.4939 25.7456 28.9339 25.7456 28.2439C25.7456 27.5539 26.2973 26.9939 26.9873 26.9939H27.0023C27.6923 26.9939 28.2523 27.5539 28.2523 28.2439C28.2523 28.9339 27.6923 29.4939 27.0023 29.4939Z" fill="#FE1646"/>
<path fill-rule="evenodd" clip-rule="evenodd" d="M19.6063 29.4939C18.9163 29.4939 18.3496 28.9339 18.3496 28.2439C18.3496 27.5539 18.9013 26.9939 19.5913 26.9939H19.6063C20.2963 26.9939 20.8563 27.5539 20.8563 28.2439C20.8563 28.9339 20.2963 29.4939 19.6063 29.4939Z" fill="#FE1646"/>
<path fill-rule="evenodd" clip-rule="evenodd" d="M12.1949 29.4939C11.5049 29.4939 10.9365 28.9339 10.9365 28.2439C10.9365 27.5539 11.4899 26.9939 12.1799 26.9939H12.1949C12.8849 26.9939 13.4449 27.5539 13.4449 28.2439C13.4449 28.9339 12.8849 29.4939 12.1949 29.4939Z" fill="#FE1646"/>
<path fill-rule="evenodd" clip-rule="evenodd" d="M26.3228 9.65175C25.6328 9.65175 25.0728 9.09175 25.0728 8.40175V2.91675C25.0728 2.22675 25.6328 1.66675 26.3228 1.66675C27.0128 1.66675 27.5728 2.22675 27.5728 2.91675V8.40175C27.5728 9.09175 27.0128 9.65175 26.3228 9.65175Z" fill="#FE1646"/>
<path fill-rule="evenodd" clip-rule="evenodd" d="M12.8589 9.65175C12.1689 9.65175 11.6089 9.09175 11.6089 8.40175V2.91675C11.6089 2.22675 12.1689 1.66675 12.8589 1.66675C13.5489 1.66675 14.1089 2.22675 14.1089 2.91675V8.40175C14.1089 9.09175 13.5489 9.65175 12.8589 9.65175Z" fill="#FE1646"/>
<mask id="mask0_125_2528" style="mask-type:luminance" maskUnits="userSpaceOnUse" x="3" y="4" width="33" height="34">
<path fill-rule="evenodd" clip-rule="evenodd" d="M3.3335 4.29858H35.8335V37.5001H3.3335V4.29858Z" fill="white"/>
</mask>
<g mask="url(#mask0_125_2528)">
<path fill-rule="evenodd" clip-rule="evenodd" d="M12.5352 6.79858C8.2135 6.79858 5.8335 9.10358 5.8335 13.2886V28.3703C5.8335 32.6469 8.2135 35.0002 12.5352 35.0002H26.6318C30.9535 35.0002 33.3335 32.6903 33.3335 28.4969V13.2886C33.3402 11.2303 32.7868 9.63025 31.6885 8.53025C30.5585 7.39692 28.8168 6.79858 26.6468 6.79858H12.5352ZM26.6318 37.5003H12.5352C6.86016 37.5003 3.3335 34.0019 3.3335 28.3703V13.2886C3.3335 7.74192 6.86016 4.29858 12.5352 4.29858H26.6468C29.4952 4.29858 31.8502 5.15192 33.4585 6.76358C35.0202 8.33192 35.8418 10.5869 35.8335 13.2919V28.4969C35.8335 34.0503 32.3068 37.5003 26.6318 37.5003Z" fill="#FE1646"/>
</g>
</svg>
