<svg width="513" height="614" viewBox="0 0 513 614" fill="none" xmlns="http://www.w3.org/2000/svg">
<path d="M65.326 230.066C55.3041 233.717 46.4693 240.035 39.7752 248.339C33.0812 256.643 28.782 266.618 27.3416 277.186C20.8223 313.912 42.6032 352.551 75.7308 363.527C86.7222 367.259 98.6263 367.333 109.663 363.737L814.733 127.466C804.316 130.965 789.026 133.705 777.255 129.854C743.984 119.176 722.431 80.2797 728.866 43.5134C733.015 19.843 747.925 2.68129 766.85 -3.60731L65.326 230.066Z" stroke="white" stroke-width="0.5" stroke-miterlimit="10"/>
<path d="M65.6833 231.179C76.5308 227.653 88.229 227.737 99.0245 231.42C131.661 242.109 153.01 280.227 146.628 316.338C144.909 327.043 140.41 337.109 133.58 345.529C126.75 353.95 117.828 360.429 107.708 364.32L810.829 128.95C829.502 122.75 844.079 105.848 848.213 82.5367C854.595 46.4262 833.246 8.30801 800.61 -2.38129C789.796 -6.03924 778.095 -6.1308 767.226 -2.64241" stroke="white" stroke-width="0.5" stroke-miterlimit="10"/>
</svg>
