<svg width="238" height="699" viewBox="0 0 238 699" fill="none" xmlns="http://www.w3.org/2000/svg">
<g opacity="0.2">
<path d="M-92.7847 174.619C-189.146 164.534 -275.438 234.474 -285.523 330.836C-295.608 427.197 -225.667 513.489 -129.305 523.574C-32.9442 533.659 53.3475 463.718 63.4324 367.357C73.5174 270.995 3.57661 184.703 -92.7847 174.619Z" stroke="#D9D9D9" stroke-width="2" stroke-miterlimit="10"/>
<path d="M-76.9391 198.627C-159.223 190.015 -232.908 249.738 -241.52 332.022C-250.132 414.306 -190.408 487.991 -108.125 496.603C-25.8408 505.214 47.8445 445.491 56.4562 363.207C65.0678 280.924 5.34468 207.238 -76.9391 198.627Z" stroke="#D9D9D9" stroke-width="1.8" stroke-miterlimit="10"/>
<path d="M22.4649 267.943C-20.7167 214.667 -98.9117 206.483 -152.188 249.665C-205.465 292.846 -213.649 371.041 -170.467 424.318C-127.286 477.595 -49.0906 485.778 4.18607 442.597C57.4628 399.415 65.6465 321.22 22.4649 267.943Z" stroke="#D9D9D9" stroke-width="1.6" stroke-miterlimit="10"/>
<path d="M21.0659 282.614C-13.1949 240.343 -75.2356 233.85 -117.506 268.111C-159.776 302.372 -166.269 364.413 -132.009 406.683C-97.7477 448.953 -35.707 455.446 6.5633 421.185C48.8336 386.925 55.3267 324.884 21.0659 282.614Z" stroke="#D9D9D9" stroke-width="1.4" stroke-miterlimit="10"/>
<path d="M19.6864 297.269C-5.66191 265.994 -51.5636 261.19 -82.8378 286.539C-114.112 311.887 -118.916 357.789 -93.5677 389.063C-68.2194 420.337 -22.3178 425.141 8.95642 399.793C40.2307 374.445 45.0346 328.543 19.6864 297.269Z" stroke="#D9D9D9" stroke-width="1.2" stroke-miterlimit="10"/>
<path d="M18.3216 311.942C1.8858 291.664 -27.8768 288.549 -48.155 304.985C-68.4332 321.421 -71.548 351.183 -55.1122 371.462C-38.6764 391.74 -8.91391 394.855 11.3643 378.419C31.6425 361.983 34.7574 332.221 18.3216 311.942Z" stroke="#D9D9D9" stroke-miterlimit="10"/>
</g>
</svg>
