<svg width="190" height="497" viewBox="0 0 190 497" fill="none" xmlns="http://www.w3.org/2000/svg">
<g opacity="0.2">
<path d="M372.144 372.144C440.654 303.634 440.654 192.558 372.144 124.048C303.634 55.5383 192.558 55.5383 124.048 124.048C55.5382 192.558 55.5383 303.634 124.048 372.144C192.558 440.654 303.634 440.654 372.144 372.144Z" stroke="#D9D9D9" stroke-width="2" stroke-miterlimit="10"/>
<path d="M343.516 369.337C402.017 310.836 402.017 215.987 343.516 157.486C285.015 98.9843 190.165 98.9843 131.664 157.486C73.163 215.987 73.163 310.836 131.664 369.337C190.165 427.838 285.015 427.838 343.516 369.337Z" stroke="#D9D9D9" stroke-width="1.8" stroke-miterlimit="10"/>
<path d="M227.075 402.915C295.654 402.915 351.248 347.32 351.248 278.742C351.248 210.163 295.654 154.569 227.075 154.569C158.496 154.569 102.902 210.163 102.902 278.742C102.902 347.32 158.496 402.915 227.075 402.915Z" stroke="#D9D9D9" stroke-width="1.6" stroke-miterlimit="10"/>
<path d="M216.559 392.591C270.97 392.591 315.079 348.482 315.079 294.07C315.079 239.659 270.97 195.55 216.559 195.55C162.148 195.55 118.039 239.659 118.039 294.07C118.039 348.482 162.148 392.591 216.559 392.591Z" stroke="#D9D9D9" stroke-width="1.4" stroke-miterlimit="10"/>
<path d="M206.042 382.291C246.299 382.291 278.934 349.657 278.934 309.4C278.934 269.143 246.299 236.508 206.042 236.508C165.786 236.508 133.151 269.143 133.151 309.4C133.151 349.657 165.786 382.291 206.042 382.291Z" stroke="#D9D9D9" stroke-width="1.2" stroke-miterlimit="10"/>
<path d="M195.502 371.991C221.605 371.991 242.765 350.831 242.765 324.729C242.765 298.626 221.605 277.466 195.502 277.466C169.4 277.466 148.24 298.626 148.24 324.729C148.24 350.831 169.4 371.991 195.502 371.991Z" stroke="#D9D9D9" stroke-miterlimit="10"/>
</g>
</svg>
