<svg width="535" height="463" viewBox="0 0 535 463" fill="none" xmlns="http://www.w3.org/2000/svg">
<path d="M525.089 588.141C525.089 588.141 309.257 161.347 -103.971 162.774C-76.9854 211.715 -101.288 259.643 -144.751 297.103C109.106 273.46 314.499 364.78 509.044 620.086C538.297 614.981 525.089 588.141 525.089 588.141Z" fill="#30568C"/>
<path d="M-94.353 221.097C-99.8517 248.821 -118.947 274.819 -144.811 297.128C109.108 273.457 314.5 364.777 509.045 620.084C512.164 619.589 515.195 618.644 518.042 617.278C329.23 260.638 9.65887 223.374 -94.353 221.097Z" fill="#EFBA43"/>
<path style="mix-blend-mode:multiply" d="M525.089 588.141C525.089 588.141 309.257 161.347 -103.971 162.774C-76.9854 211.715 -101.288 259.643 -144.751 297.103C109.106 273.46 314.499 364.78 509.044 620.086C538.297 614.981 525.089 588.141 525.089 588.141Z" fill="url(#paint0_linear_125_3584)"/>
<defs>
<linearGradient id="paint0_linear_125_3584" x1="159.368" y1="393.497" x2="548.521" y2="898.381" gradientUnits="userSpaceOnUse">
<stop stop-color="white"/>
<stop offset="1" stop-color="#204066"/>
</linearGradient>
</defs>
</svg>
