<svg width="83" height="83" viewBox="0 0 83 83" fill="none" xmlns="http://www.w3.org/2000/svg">
<g clip-path="url(#clip0_125_2428)">
<path d="M12.8994 43.2445C11.2663 42.3016 10.7016 40.194 11.6445 38.561L23.6445 17.7763C24.5873 16.1433 26.6949 15.5785 28.328 16.5214C29.9611 17.4643 30.5258 19.5718 29.5829 21.2049L17.5829 41.9895C16.6401 43.6226 14.5325 44.1873 12.8994 43.2445ZM16.695 50.3846C15.0619 49.4417 14.4972 47.3341 15.4401 45.7011L31.7258 17.4934C32.6686 15.8603 34.7762 15.2956 36.4093 16.2384C38.0424 17.1813 38.6071 19.2889 37.6642 20.922L21.3785 49.1296C20.4357 50.7627 18.3281 51.3274 16.695 50.3846ZM54.4686 67.2445C56.1017 68.1873 58.2093 67.6226 59.1521 65.9895L71.1521 45.2049C72.095 43.5718 71.5303 41.4643 69.8972 40.5214C68.2641 39.5785 66.1565 40.1433 65.2137 41.7763L53.2137 62.561C52.2708 64.194 52.8355 66.3016 54.4686 67.2445ZM45.9587 68.2697C47.5918 69.2126 49.6994 68.6479 50.6423 67.0148L67.7851 37.3225C68.728 35.6894 68.1632 33.5818 66.5302 32.639C64.8971 31.6961 62.7895 32.2609 61.8466 33.8939L44.7038 63.5862C43.7609 65.2193 44.3257 67.3269 45.9587 68.2697Z" fill="#FAFAFA"/>
<path d="M51.5913 44.7987L33.7759 34.5129L31.2045 38.9668L49.0198 49.2525L51.5913 44.7987Z" fill="#FAFAFA"/>
</g>
<defs>
<clipPath id="clip0_125_2428">
<rect width="60" height="60" fill="white" transform="translate(30.4175 0.9021) rotate(30)"/>
</clipPath>
</defs>
</svg>
