<svg width="553" height="776" viewBox="0 0 553 776" fill="none" xmlns="http://www.w3.org/2000/svg">
<path d="M553 337C553 410.82 534.385 483.449 498.875 548.168C463.366 612.887 412.11 667.607 349.847 707.266C287.585 746.925 216.327 770.243 142.664 775.063C69.001 779.883 -4.68808 766.05 -71.5876 734.842C-138.487 703.634 -196.437 656.06 -240.077 596.52C-283.717 536.98 -311.637 467.397 -321.257 394.206C-330.876 321.014 -321.884 246.579 -295.111 177.785C-268.338 108.991 -224.649 48.0583 -168.085 0.623978L-110.915 68.7974C-156.015 106.618 -190.849 155.201 -212.196 210.053C-233.543 264.905 -240.713 324.254 -233.043 382.612C-225.373 440.969 -203.111 496.45 -168.316 543.923C-133.52 591.396 -87.3155 629.328 -33.9745 654.211C19.3665 679.094 78.1209 690.124 136.855 686.281C195.588 682.438 252.404 663.846 302.048 632.224C351.692 600.603 392.56 556.973 420.873 505.371C449.185 453.768 464.028 395.859 464.028 337H553Z" fill="#FE1646"/>
</svg>
