<svg width="44" height="44" viewBox="0 0 44 44" fill="none" xmlns="http://www.w3.org/2000/svg">
<g filter="url(#filter0_d_54_7315)">
<path fill-rule="evenodd" clip-rule="evenodd" d="M21.102 10.0155C21.0226 10.0264 20.7522 10.0588 20.501 10.0874C18.41 10.3252 16.3218 11.1973 14.5397 12.5768C14.0124 12.9849 12.9681 14.0299 12.5577 14.56C11.227 16.2788 10.4201 18.1691 10.0833 20.3569C9.97222 21.0788 9.97222 22.9334 10.0833 23.6553C10.6215 27.1515 12.4521 30.0681 15.3089 31.9812C16.8965 33.0443 18.5248 33.6555 20.5251 33.9391C21.1744 34.0312 22.9409 34.0161 23.6499 33.9124C25.4416 33.6503 27.1631 32.9936 28.6257 32.0142C31.5907 30.0286 33.4137 27.0896 33.924 23.4724C34.0045 22.9022 34.0027 21.1022 33.921 20.5158C33.496 17.4618 32.0269 14.7536 29.7554 12.8364C28.0389 11.3877 25.8978 10.4263 23.674 10.1058C23.155 10.0311 21.4276 9.97036 21.102 10.0155ZM25.1162 13.8817C25.6054 13.9083 26.0542 13.9412 26.1138 13.9547L26.2219 13.9794V15.2765V16.5736H25.244C23.9064 16.5736 23.6393 16.6632 23.3925 17.1942C23.2688 17.4604 23.2675 17.4747 23.2664 18.6409L23.2653 19.8187L24.7017 19.8314L26.1381 19.8442L26.1141 19.9997C26.1009 20.0852 26.0173 20.7339 25.9284 21.4412L25.7667 22.7272H24.504H23.2413V26.453V30.1788H21.751H20.2606V26.453V22.7272H19.0107H17.7607V21.285V19.8427H19.0066H20.2524L20.2723 18.3404C20.2949 16.6315 20.3292 16.4173 20.701 15.6608C21.0907 14.868 21.9082 14.2213 22.8041 13.9972C23.4485 13.8359 23.878 13.8145 25.1162 13.8817Z" fill="url(#paint0_linear_54_7315)"/>
<path fill-rule="evenodd" clip-rule="evenodd" d="M21.102 10.0155C21.0226 10.0264 20.7522 10.0588 20.501 10.0874C18.41 10.3252 16.3218 11.1973 14.5397 12.5768C14.0124 12.9849 12.9681 14.0299 12.5577 14.56C11.227 16.2788 10.4201 18.1691 10.0833 20.3569C9.97222 21.0788 9.97222 22.9334 10.0833 23.6553C10.6215 27.1515 12.4521 30.0681 15.3089 31.9812C16.8965 33.0443 18.5248 33.6555 20.5251 33.9391C21.1744 34.0312 22.9409 34.0161 23.6499 33.9124C25.4416 33.6503 27.1631 32.9936 28.6257 32.0142C31.5907 30.0286 33.4137 27.0896 33.924 23.4724C34.0045 22.9022 34.0027 21.1022 33.921 20.5158C33.496 17.4618 32.0269 14.7536 29.7554 12.8364C28.0389 11.3877 25.8978 10.4263 23.674 10.1058C23.155 10.0311 21.4276 9.97036 21.102 10.0155ZM25.1162 13.8817C25.6054 13.9083 26.0542 13.9412 26.1138 13.9547L26.2219 13.9794V15.2765V16.5736H25.244C23.9064 16.5736 23.6393 16.6632 23.3925 17.1942C23.2688 17.4604 23.2675 17.4747 23.2664 18.6409L23.2653 19.8187L24.7017 19.8314L26.1381 19.8442L26.1141 19.9997C26.1009 20.0852 26.0173 20.7339 25.9284 21.4412L25.7667 22.7272H24.504H23.2413V26.453V30.1788H21.751H20.2606V26.453V22.7272H19.0107H17.7607V21.285V19.8427H19.0066H20.2524L20.2723 18.3404C20.2949 16.6315 20.3292 16.4173 20.701 15.6608C21.0907 14.868 21.9082 14.2213 22.8041 13.9972C23.4485 13.8359 23.878 13.8145 25.1162 13.8817Z" fill="white" fill-opacity="0.9"/>
</g>
<defs>
<filter id="filter0_d_54_7315" x="0" y="0" width="43.9833" height="44" filterUnits="userSpaceOnUse" color-interpolation-filters="sRGB">
<feFlood flood-opacity="0" result="BackgroundImageFix"/>
<feColorMatrix in="SourceAlpha" type="matrix" values="0 0 0 0 0 0 0 0 0 0 0 0 0 0 0 0 0 0 127 0" result="hardAlpha"/>
<feOffset/>
<feGaussianBlur stdDeviation="5"/>
<feColorMatrix type="matrix" values="0 0 0 0 0.591667 0 0 0 0 0.7305 0 0 0 0 1 0 0 0 0.3 0"/>
<feBlend mode="normal" in2="BackgroundImageFix" result="effect1_dropShadow_54_7315"/>
<feBlend mode="normal" in="SourceGraphic" in2="effect1_dropShadow_54_7315" result="shape"/>
</filter>
<linearGradient id="paint0_linear_54_7315" x1="20.7672" y1="30.7735" x2="54.6485" y2="67.7155" gradientUnits="userSpaceOnUse">
<stop stop-color="white"/>
<stop offset="1" stop-color="white" stop-opacity="0"/>
</linearGradient>
</defs>
</svg>
