<svg width="45" height="44" viewBox="0 0 45 44" fill="none" xmlns="http://www.w3.org/2000/svg">
<g filter="url(#filter0_d_54_7316)">
<path d="M34.9833 22C34.9833 28.6276 29.6109 34 22.9833 34C16.3558 34 10.9833 28.6276 10.9833 22C10.9833 15.3724 16.3558 10 22.9833 10C29.6109 10 34.9833 15.3724 34.9833 22Z" fill="url(#paint0_linear_54_7316)"/>
<path d="M34.9833 22C34.9833 28.6276 29.6109 34 22.9833 34C16.3558 34 10.9833 28.6276 10.9833 22C10.9833 15.3724 16.3558 10 22.9833 10C29.6109 10 34.9833 15.3724 34.9833 22Z" fill="white" fill-opacity="0.9"/>
</g>
<path d="M24.9833 22C24.9833 23.1046 24.0879 24 22.9833 24C21.8787 24 20.9833 23.1046 20.9833 22C20.9833 20.8954 21.8787 20 22.9833 20C24.0879 20 24.9833 20.8954 24.9833 22Z" fill="#413E49"/>
<path d="M28.6887 17.6836C28.5714 17.3658 28.3843 17.0782 28.1412 16.8421C27.9051 16.599 27.6177 16.4119 27.2997 16.2946C27.0418 16.1945 26.6544 16.0753 25.9409 16.0428C25.169 16.0076 24.9376 16 22.9834 16C21.0291 16 20.7977 16.0074 20.026 16.0426C19.3124 16.0753 18.9248 16.1945 18.6671 16.2946C18.3492 16.4119 18.0615 16.599 17.8256 16.8421C17.5825 17.0782 17.3954 17.3656 17.278 17.6836C17.1778 17.9415 17.0586 18.3291 17.0261 19.0426C16.9909 19.8143 16.9833 20.0458 16.9833 22.0001C16.9833 23.9542 16.9909 24.1857 17.0261 24.9576C17.0586 25.6711 17.1778 26.0585 17.278 26.3164C17.3954 26.6344 17.5823 26.9218 17.8254 27.1579C18.0615 27.401 18.349 27.5881 18.667 27.7054C18.9248 27.8057 19.3124 27.9249 20.026 27.9574C20.7977 27.9926 21.0289 28 22.9832 28C24.9378 28 25.1692 27.9926 25.9407 27.9574C26.6542 27.9249 27.0418 27.8057 27.2997 27.7054C27.938 27.4592 28.4425 26.9547 28.6887 26.3164C28.7889 26.0585 28.9081 25.6711 28.9407 24.9576C28.9759 24.1857 28.9833 23.9542 28.9833 22.0001C28.9833 20.0458 28.9759 19.8143 28.9407 19.0426C28.9083 18.3291 28.7891 17.9415 28.6887 17.6836ZM22.9834 25.758C20.9077 25.758 19.2251 24.0756 19.2251 21.9999C19.2251 19.9242 20.9077 18.2418 22.9834 18.2418C25.0589 18.2418 26.7416 19.9242 26.7416 21.9999C26.7416 24.0756 25.0589 25.758 22.9834 25.758ZM26.8901 18.9715C26.4051 18.9715 26.0119 18.5782 26.0119 18.0932C26.0119 17.6082 26.4051 17.2149 26.8901 17.2149C27.3752 17.2149 27.7684 17.6082 27.7684 18.0932C27.7682 18.5782 27.3752 18.9715 26.8901 18.9715Z" fill="#413E49"/>
<defs>
<filter id="filter0_d_54_7316" x="0.983337" y="0" width="44" height="44" filterUnits="userSpaceOnUse" color-interpolation-filters="sRGB">
<feFlood flood-opacity="0" result="BackgroundImageFix"/>
<feColorMatrix in="SourceAlpha" type="matrix" values="0 0 0 0 0 0 0 0 0 0 0 0 0 0 0 0 0 0 127 0" result="hardAlpha"/>
<feOffset/>
<feGaussianBlur stdDeviation="5"/>
<feColorMatrix type="matrix" values="0 0 0 0 0.591667 0 0 0 0 0.7305 0 0 0 0 1 0 0 0 0.3 0"/>
<feBlend mode="normal" in2="BackgroundImageFix" result="effect1_dropShadow_54_7316"/>
<feBlend mode="normal" in="SourceGraphic" in2="effect1_dropShadow_54_7316" result="shape"/>
</filter>
<linearGradient id="paint0_linear_54_7316" x1="21.758" y1="30.7735" x2="55.6373" y2="67.7389" gradientUnits="userSpaceOnUse">
<stop stop-color="white"/>
<stop offset="1" stop-color="white" stop-opacity="0"/>
</linearGradient>
</defs>
</svg>
