<svg width="157" height="52" viewBox="0 0 157 52" fill="none" xmlns="http://www.w3.org/2000/svg">
<mask id="path-1-outside-1_125_2492" maskUnits="userSpaceOnUse" x="0" y="0" width="100" height="52" fill="black">
<rect fill="white" width="100" height="52"/>
<path fill-rule="evenodd" clip-rule="evenodd" d="M13.7669 1L25.7506 26.6689H22.9781L18.9358 18.2215H7.86597L3.86253 26.6689H1L13.1392 1H13.7669ZM13.4459 6.45321L9.03961 15.7441H17.8317L13.4459 6.45321ZM29.3329 7.68274H31.7865V11.0854C32.6458 9.88852 33.7541 8.89149 35.0354 8.1627C36.2272 7.51598 37.5641 7.18283 38.9203 7.1946C40.2606 7.17141 41.5775 7.54755 42.7029 8.27503C43.789 8.98106 44.638 9.99633 45.1402 11.1895C45.6636 12.415 45.9253 14.3171 45.9253 16.896V26.6689H43.4717V17.6108C43.4717 15.4255 43.3811 13.9658 43.1998 13.2319C42.9149 11.9752 42.3696 11.0296 41.564 10.395C40.7584 9.76054 39.7102 9.44397 38.4194 9.44533C36.9597 9.43721 35.5467 9.95825 34.4425 10.9118C33.3013 11.8423 32.4898 13.1147 32.1279 14.5411C31.8948 15.482 31.7783 17.2037 31.7783 19.7063V24.8246H31.7987V48.0161H41.6847V50.4935H31.6842V50.4955H29.2143V7.68477H29.3329V7.68274ZM70.083 26.6771V7.68275H67.6866V7.68477H67.6049V11.0568C66.7556 9.86698 65.6453 8.88597 64.3579 8.18926C63.0445 7.51392 61.5841 7.17362 60.1071 7.1987C58.8125 7.18151 57.5283 7.43149 56.3348 7.933C55.1414 8.43451 54.0645 9.17673 53.1716 10.1132C52.241 11.0265 51.5058 12.1191 51.0106 13.3247C50.5154 14.5303 50.2705 15.8238 50.2907 17.1268C50.2907 19.9194 51.2448 22.29 53.1532 24.2384C54.5592 25.6855 56.3846 26.6551 58.3718 27.0106C60.359 27.366 62.4077 27.0893 64.2291 26.2196C65.5321 25.5578 66.6818 24.6315 67.6049 23.5005V31.5094V42.0951H67.6464C67.7385 44.0837 68.0334 45.6243 68.5311 46.7171C69.1113 48.0251 70.0817 49.1221 71.3098 49.8583C72.5475 50.6194 74.0932 51 75.9471 51C77.8009 51 79.3412 50.6249 80.568 49.8746C81.7831 49.1393 82.7458 48.0523 83.3283 46.7579C83.9403 45.4277 84.2464 43.4533 84.2464 40.835V31.5175H81.7478V40.3816C81.7478 42.7548 81.6251 44.3077 81.3797 45.0403C81.0277 46.097 80.3363 47.0081 79.4128 47.6321C78.4586 48.2897 77.3 48.6186 75.9369 48.6186C74.6847 48.6484 73.4537 48.2918 72.4119 47.5974C71.4399 46.9425 70.7303 45.9661 70.4081 44.8401C70.2254 44.2009 70.1143 43.1482 70.0748 41.6818V26.6771H70.083ZM67.6049 15.2751V19.242C67.4421 19.9068 67.1919 20.55 66.8585 21.1544C66.2105 22.3063 65.253 23.2542 64.0942 23.8912C62.9369 24.5578 61.6249 24.9099 60.289 24.9124C58.9776 24.9153 57.69 24.5624 56.5637 23.8912C55.4006 23.2044 54.4448 22.2165 53.7972 21.0319C53.126 19.8651 52.7727 18.543 52.7727 17.1973C52.7727 15.8516 53.126 14.5294 53.7972 13.3627C54.4384 12.2002 55.3819 11.2322 56.5281 10.561C57.6744 9.88987 58.9808 9.54038 60.3095 9.5495H60.3156C61.3101 9.52938 62.2979 9.71536 63.2167 10.0957C64.1356 10.4761 64.9655 11.0425 65.6542 11.7594C66.6392 12.7664 67.2894 13.9383 67.6049 15.2751ZM63.4174 45.2854L61.3564 44.2029C60.608 45.4379 59.9142 46.3324 59.2749 46.8866C58.5849 47.4717 57.7935 47.9258 56.9399 48.2264C56.0351 48.5595 55.0784 48.7296 54.1142 48.7289C53.1705 48.7492 52.2331 48.5716 51.3625 48.2075C50.4919 47.8434 49.7074 47.3008 49.0598 46.615C47.6953 45.2043 46.9899 43.3961 46.9436 41.1904H64.0533C64.0287 38.5979 63.3295 36.4343 61.9555 34.6996C60.0144 32.2487 57.4245 31.0233 54.1857 31.0233C51.0383 31.0233 48.5261 32.2215 46.6491 34.6179C45.1887 36.445 44.4044 38.7197 44.4286 41.0576C44.4313 43.6174 45.3058 45.9124 47.0519 47.9425C48.7981 49.9727 51.2223 50.9877 54.3248 50.9877C55.6067 51.008 56.8814 50.792 58.0849 50.3505C59.1903 49.9259 60.2047 49.2952 61.0742 48.4919C62.0397 47.5705 62.8331 46.4847 63.4174 45.2854ZM59.9251 35.972C60.5521 36.7522 61.0292 37.7938 61.3564 39.0969H47.1828C47.683 37.3513 48.4232 36.0421 49.4033 35.1694C50.7198 33.9809 52.4402 33.3382 54.2144 33.372C55.3324 33.3693 56.4371 33.6142 57.449 34.0889C58.4098 34.5157 59.2576 35.1605 59.9251 35.972ZM97.5755 35.2164L99.1478 33.5824C97.3744 31.8736 95.6126 31.0247 93.8624 31.0356C92.3575 31.0356 91.1123 31.5121 90.1268 32.4652C89.6423 32.9278 89.2603 33.4867 89.0053 34.1059C88.7504 34.725 88.6281 35.3906 88.6465 36.0599C88.6321 37.1168 88.9574 38.1505 89.5747 39.0091C90.1936 39.871 91.3611 40.7438 93.0772 41.6274C94.6762 42.4417 95.7026 43.1163 96.1565 43.6515C96.6031 44.1706 96.8464 44.8337 96.8415 45.5182C96.84 45.9404 96.7467 46.3572 96.5681 46.7398C96.3894 47.1225 96.1297 47.4617 95.8069 47.7342C95.1255 48.3588 94.2288 48.6962 93.3042 48.6758C91.9043 48.6771 90.5794 47.9732 89.3294 46.5639L87.7918 48.3102C88.45 49.1522 89.2976 49.8274 90.2658 50.2811C91.2454 50.7549 92.3201 51.0001 93.4085 50.998C95.0578 51.0048 96.4278 50.4635 97.5182 49.3743C98.0511 48.8632 98.4725 48.2476 98.7557 47.566C99.039 46.8845 99.178 46.1518 99.1642 45.4141C99.1753 44.3415 98.8373 43.2943 98.2012 42.4301C97.5469 41.556 96.3099 40.6484 94.4901 39.7076C92.9961 38.9396 92.0161 38.2704 91.5499 37.6999C91.1109 37.2161 90.8618 36.5901 90.8486 35.9373C90.8489 35.5879 90.9249 35.2427 91.0714 34.9255C91.2179 34.6082 91.4313 34.3263 91.6971 34.0992C92.25 33.5811 92.9838 33.2996 93.7418 33.3149C94.989 33.3149 96.2669 33.9487 97.5755 35.2164Z"/>
</mask>
<path fill-rule="evenodd" clip-rule="evenodd" d="M13.7669 1L25.7506 26.6689H22.9781L18.9358 18.2215H7.86597L3.86253 26.6689H1L13.1392 1H13.7669ZM13.4459 6.45321L9.03961 15.7441H17.8317L13.4459 6.45321ZM29.3329 7.68274H31.7865V11.0854C32.6458 9.88852 33.7541 8.89149 35.0354 8.1627C36.2272 7.51598 37.5641 7.18283 38.9203 7.1946C40.2606 7.17141 41.5775 7.54755 42.7029 8.27503C43.789 8.98106 44.638 9.99633 45.1402 11.1895C45.6636 12.415 45.9253 14.3171 45.9253 16.896V26.6689H43.4717V17.6108C43.4717 15.4255 43.3811 13.9658 43.1998 13.2319C42.9149 11.9752 42.3696 11.0296 41.564 10.395C40.7584 9.76054 39.7102 9.44397 38.4194 9.44533C36.9597 9.43721 35.5467 9.95825 34.4425 10.9118C33.3013 11.8423 32.4898 13.1147 32.1279 14.5411C31.8948 15.482 31.7783 17.2037 31.7783 19.7063V24.8246H31.7987V48.0161H41.6847V50.4935H31.6842V50.4955H29.2143V7.68477H29.3329V7.68274ZM70.083 26.6771V7.68275H67.6866V7.68477H67.6049V11.0568C66.7556 9.86698 65.6453 8.88597 64.3579 8.18926C63.0445 7.51392 61.5841 7.17362 60.1071 7.1987C58.8125 7.18151 57.5283 7.43149 56.3348 7.933C55.1414 8.43451 54.0645 9.17673 53.1716 10.1132C52.241 11.0265 51.5058 12.1191 51.0106 13.3247C50.5154 14.5303 50.2705 15.8238 50.2907 17.1268C50.2907 19.9194 51.2448 22.29 53.1532 24.2384C54.5592 25.6855 56.3846 26.6551 58.3718 27.0106C60.359 27.366 62.4077 27.0893 64.2291 26.2196C65.5321 25.5578 66.6818 24.6315 67.6049 23.5005V31.5094V42.0951H67.6464C67.7385 44.0837 68.0334 45.6243 68.5311 46.7171C69.1113 48.0251 70.0817 49.1221 71.3098 49.8583C72.5475 50.6194 74.0932 51 75.9471 51C77.8009 51 79.3412 50.6249 80.568 49.8746C81.7831 49.1393 82.7458 48.0523 83.3283 46.7579C83.9403 45.4277 84.2464 43.4533 84.2464 40.835V31.5175H81.7478V40.3816C81.7478 42.7548 81.6251 44.3077 81.3797 45.0403C81.0277 46.097 80.3363 47.0081 79.4128 47.6321C78.4586 48.2897 77.3 48.6186 75.9369 48.6186C74.6847 48.6484 73.4537 48.2918 72.4119 47.5974C71.4399 46.9425 70.7303 45.9661 70.4081 44.8401C70.2254 44.2009 70.1143 43.1482 70.0748 41.6818V26.6771H70.083ZM67.6049 15.2751V19.242C67.4421 19.9068 67.1919 20.55 66.8585 21.1544C66.2105 22.3063 65.253 23.2542 64.0942 23.8912C62.9369 24.5578 61.6249 24.9099 60.289 24.9124C58.9776 24.9153 57.69 24.5624 56.5637 23.8912C55.4006 23.2044 54.4448 22.2165 53.7972 21.0319C53.126 19.8651 52.7727 18.543 52.7727 17.1973C52.7727 15.8516 53.126 14.5294 53.7972 13.3627C54.4384 12.2002 55.3819 11.2322 56.5281 10.561C57.6744 9.88987 58.9808 9.54038 60.3095 9.5495H60.3156C61.3101 9.52938 62.2979 9.71536 63.2167 10.0957C64.1356 10.4761 64.9655 11.0425 65.6542 11.7594C66.6392 12.7664 67.2894 13.9383 67.6049 15.2751ZM63.4174 45.2854L61.3564 44.2029C60.608 45.4379 59.9142 46.3324 59.2749 46.8866C58.5849 47.4717 57.7935 47.9258 56.9399 48.2264C56.0351 48.5595 55.0784 48.7296 54.1142 48.7289C53.1705 48.7492 52.2331 48.5716 51.3625 48.2075C50.4919 47.8434 49.7074 47.3008 49.0598 46.615C47.6953 45.2043 46.9899 43.3961 46.9436 41.1904H64.0533C64.0287 38.5979 63.3295 36.4343 61.9555 34.6996C60.0144 32.2487 57.4245 31.0233 54.1857 31.0233C51.0383 31.0233 48.5261 32.2215 46.6491 34.6179C45.1887 36.445 44.4044 38.7197 44.4286 41.0576C44.4313 43.6174 45.3058 45.9124 47.0519 47.9425C48.7981 49.9727 51.2223 50.9877 54.3248 50.9877C55.6067 51.008 56.8814 50.792 58.0849 50.3505C59.1903 49.9259 60.2047 49.2952 61.0742 48.4919C62.0397 47.5705 62.8331 46.4847 63.4174 45.2854ZM59.9251 35.972C60.5521 36.7522 61.0292 37.7938 61.3564 39.0969H47.1828C47.683 37.3513 48.4232 36.0421 49.4033 35.1694C50.7198 33.9809 52.4402 33.3382 54.2144 33.372C55.3324 33.3693 56.4371 33.6142 57.449 34.0889C58.4098 34.5157 59.2576 35.1605 59.9251 35.972ZM97.5755 35.2164L99.1478 33.5824C97.3744 31.8736 95.6126 31.0247 93.8624 31.0356C92.3575 31.0356 91.1123 31.5121 90.1268 32.4652C89.6423 32.9278 89.2603 33.4867 89.0053 34.1059C88.7504 34.725 88.6281 35.3906 88.6465 36.0599C88.6321 37.1168 88.9574 38.1505 89.5747 39.0091C90.1936 39.871 91.3611 40.7438 93.0772 41.6274C94.6762 42.4417 95.7026 43.1163 96.1565 43.6515C96.6031 44.1706 96.8464 44.8337 96.8415 45.5182C96.84 45.9404 96.7467 46.3572 96.5681 46.7398C96.3894 47.1225 96.1297 47.4617 95.8069 47.7342C95.1255 48.3588 94.2288 48.6962 93.3042 48.6758C91.9043 48.6771 90.5794 47.9732 89.3294 46.5639L87.7918 48.3102C88.45 49.1522 89.2976 49.8274 90.2658 50.2811C91.2454 50.7549 92.3201 51.0001 93.4085 50.998C95.0578 51.0048 96.4278 50.4635 97.5182 49.3743C98.0511 48.8632 98.4725 48.2476 98.7557 47.566C99.039 46.8845 99.178 46.1518 99.1642 45.4141C99.1753 44.3415 98.8373 43.2943 98.2012 42.4301C97.5469 41.556 96.3099 40.6484 94.4901 39.7076C92.9961 38.9396 92.0161 38.2704 91.5499 37.6999C91.1109 37.2161 90.8618 36.5901 90.8486 35.9373C90.8489 35.5879 90.9249 35.2427 91.0714 34.9255C91.2179 34.6082 91.4313 34.3263 91.6971 34.0992C92.25 33.5811 92.9838 33.2996 93.7418 33.3149C94.989 33.3149 96.2669 33.9487 97.5755 35.2164Z" fill="white"/>
<path fill-rule="evenodd" clip-rule="evenodd" d="M13.7669 1L25.7506 26.6689H22.9781L18.9358 18.2215H7.86597L3.86253 26.6689H1L13.1392 1H13.7669ZM13.4459 6.45321L9.03961 15.7441H17.8317L13.4459 6.45321ZM29.3329 7.68274H31.7865V11.0854C32.6458 9.88852 33.7541 8.89149 35.0354 8.1627C36.2272 7.51598 37.5641 7.18283 38.9203 7.1946C40.2606 7.17141 41.5775 7.54755 42.7029 8.27503C43.789 8.98106 44.638 9.99633 45.1402 11.1895C45.6636 12.415 45.9253 14.3171 45.9253 16.896V26.6689H43.4717V17.6108C43.4717 15.4255 43.3811 13.9658 43.1998 13.2319C42.9149 11.9752 42.3696 11.0296 41.564 10.395C40.7584 9.76054 39.7102 9.44397 38.4194 9.44533C36.9597 9.43721 35.5467 9.95825 34.4425 10.9118C33.3013 11.8423 32.4898 13.1147 32.1279 14.5411C31.8948 15.482 31.7783 17.2037 31.7783 19.7063V24.8246H31.7987V48.0161H41.6847V50.4935H31.6842V50.4955H29.2143V7.68477H29.3329V7.68274ZM70.083 26.6771V7.68275H67.6866V7.68477H67.6049V11.0568C66.7556 9.86698 65.6453 8.88597 64.3579 8.18926C63.0445 7.51392 61.5841 7.17362 60.1071 7.1987C58.8125 7.18151 57.5283 7.43149 56.3348 7.933C55.1414 8.43451 54.0645 9.17673 53.1716 10.1132C52.241 11.0265 51.5058 12.1191 51.0106 13.3247C50.5154 14.5303 50.2705 15.8238 50.2907 17.1268C50.2907 19.9194 51.2448 22.29 53.1532 24.2384C54.5592 25.6855 56.3846 26.6551 58.3718 27.0106C60.359 27.366 62.4077 27.0893 64.2291 26.2196C65.5321 25.5578 66.6818 24.6315 67.6049 23.5005V31.5094V42.0951H67.6464C67.7385 44.0837 68.0334 45.6243 68.5311 46.7171C69.1113 48.0251 70.0817 49.1221 71.3098 49.8583C72.5475 50.6194 74.0932 51 75.9471 51C77.8009 51 79.3412 50.6249 80.568 49.8746C81.7831 49.1393 82.7458 48.0523 83.3283 46.7579C83.9403 45.4277 84.2464 43.4533 84.2464 40.835V31.5175H81.7478V40.3816C81.7478 42.7548 81.6251 44.3077 81.3797 45.0403C81.0277 46.097 80.3363 47.0081 79.4128 47.6321C78.4586 48.2897 77.3 48.6186 75.9369 48.6186C74.6847 48.6484 73.4537 48.2918 72.4119 47.5974C71.4399 46.9425 70.7303 45.9661 70.4081 44.8401C70.2254 44.2009 70.1143 43.1482 70.0748 41.6818V26.6771H70.083ZM67.6049 15.2751V19.242C67.4421 19.9068 67.1919 20.55 66.8585 21.1544C66.2105 22.3063 65.253 23.2542 64.0942 23.8912C62.9369 24.5578 61.6249 24.9099 60.289 24.9124C58.9776 24.9153 57.69 24.5624 56.5637 23.8912C55.4006 23.2044 54.4448 22.2165 53.7972 21.0319C53.126 19.8651 52.7727 18.543 52.7727 17.1973C52.7727 15.8516 53.126 14.5294 53.7972 13.3627C54.4384 12.2002 55.3819 11.2322 56.5281 10.561C57.6744 9.88987 58.9808 9.54038 60.3095 9.5495H60.3156C61.3101 9.52938 62.2979 9.71536 63.2167 10.0957C64.1356 10.4761 64.9655 11.0425 65.6542 11.7594C66.6392 12.7664 67.2894 13.9383 67.6049 15.2751ZM63.4174 45.2854L61.3564 44.2029C60.608 45.4379 59.9142 46.3324 59.2749 46.8866C58.5849 47.4717 57.7935 47.9258 56.9399 48.2264C56.0351 48.5595 55.0784 48.7296 54.1142 48.7289C53.1705 48.7492 52.2331 48.5716 51.3625 48.2075C50.4919 47.8434 49.7074 47.3008 49.0598 46.615C47.6953 45.2043 46.9899 43.3961 46.9436 41.1904H64.0533C64.0287 38.5979 63.3295 36.4343 61.9555 34.6996C60.0144 32.2487 57.4245 31.0233 54.1857 31.0233C51.0383 31.0233 48.5261 32.2215 46.6491 34.6179C45.1887 36.445 44.4044 38.7197 44.4286 41.0576C44.4313 43.6174 45.3058 45.9124 47.0519 47.9425C48.7981 49.9727 51.2223 50.9877 54.3248 50.9877C55.6067 51.008 56.8814 50.792 58.0849 50.3505C59.1903 49.9259 60.2047 49.2952 61.0742 48.4919C62.0397 47.5705 62.8331 46.4847 63.4174 45.2854ZM59.9251 35.972C60.5521 36.7522 61.0292 37.7938 61.3564 39.0969H47.1828C47.683 37.3513 48.4232 36.0421 49.4033 35.1694C50.7198 33.9809 52.4402 33.3382 54.2144 33.372C55.3324 33.3693 56.4371 33.6142 57.449 34.0889C58.4098 34.5157 59.2576 35.1605 59.9251 35.972ZM97.5755 35.2164L99.1478 33.5824C97.3744 31.8736 95.6126 31.0247 93.8624 31.0356C92.3575 31.0356 91.1123 31.5121 90.1268 32.4652C89.6423 32.9278 89.2603 33.4867 89.0053 34.1059C88.7504 34.725 88.6281 35.3906 88.6465 36.0599C88.6321 37.1168 88.9574 38.1505 89.5747 39.0091C90.1936 39.871 91.3611 40.7438 93.0772 41.6274C94.6762 42.4417 95.7026 43.1163 96.1565 43.6515C96.6031 44.1706 96.8464 44.8337 96.8415 45.5182C96.84 45.9404 96.7467 46.3572 96.5681 46.7398C96.3894 47.1225 96.1297 47.4617 95.8069 47.7342C95.1255 48.3588 94.2288 48.6962 93.3042 48.6758C91.9043 48.6771 90.5794 47.9732 89.3294 46.5639L87.7918 48.3102C88.45 49.1522 89.2976 49.8274 90.2658 50.2811C91.2454 50.7549 92.3201 51.0001 93.4085 50.998C95.0578 51.0048 96.4278 50.4635 97.5182 49.3743C98.0511 48.8632 98.4725 48.2476 98.7557 47.566C99.039 46.8845 99.178 46.1518 99.1642 45.4141C99.1753 44.3415 98.8373 43.2943 98.2012 42.4301C97.5469 41.556 96.3099 40.6484 94.4901 39.7076C92.9961 38.9396 92.0161 38.2704 91.5499 37.6999C91.1109 37.2161 90.8618 36.5901 90.8486 35.9373C90.8489 35.5879 90.9249 35.2427 91.0714 34.9255C91.2179 34.6082 91.4313 34.3263 91.6971 34.0992C92.25 33.5811 92.9838 33.2996 93.7418 33.3149C94.989 33.3149 96.2669 33.9487 97.5755 35.2164Z" stroke="white" mask="url(#path-1-outside-1_125_2492)"/>
<path d="M121.889 32.0436C122.297 31.9244 122.718 31.8539 123.143 31.8335H123.65C127.557 31.9064 130.284 32.0465 131.833 32.2537L131.247 35.8395H124.216C123.556 35.8395 123.131 35.9978 122.935 36.3115C122.737 36.6099 122.618 36.9522 122.589 37.3072L122.244 39.48L129.36 39.7419L128.801 43.3018L121.576 43.5378L120.377 51.0002H116L118.37 36.2453C118.745 33.943 119.918 32.5424 121.889 32.0436Z" fill="#FE1646"/>
<path d="M131.833 51.0002L134.94 31.8335H139.333L136.227 51.0002H131.833Z" fill="#FE1646"/>
<path d="M141.833 35.7382L142.459 31.8335H156.833L156.208 35.7382H151.065L148.673 51.0002H144.408L146.799 35.7382H141.833Z" fill="#FE1646"/>
</svg>
