<svg width="599" height="415" viewBox="0 0 599 415" fill="none" xmlns="http://www.w3.org/2000/svg">
<path d="M1 24L27 50" stroke="#D9D9D9" stroke-miterlimit="10"/>
<path d="M27 24L1 50" stroke="#D9D9D9" stroke-miterlimit="10"/>
<path d="M84 24L110 50" stroke="#D9D9D9" stroke-miterlimit="10"/>
<path d="M110 24L84 50" stroke="#D9D9D9" stroke-miterlimit="10"/>
<path d="M167 24L193 50" stroke="#D9D9D9" stroke-miterlimit="10"/>
<path d="M193 24L167 50" stroke="#D9D9D9" stroke-miterlimit="10"/>
<path d="M250 24L276 50" stroke="#D9D9D9" stroke-miterlimit="10"/>
<path d="M276 24L250 50" stroke="#D9D9D9" stroke-miterlimit="10"/>
<path d="M1 97L27 123" stroke="#D9D9D9" stroke-miterlimit="10"/>
<path d="M27 97L1 123" stroke="#D9D9D9" stroke-miterlimit="10"/>
<path d="M84 97L110 123" stroke="#D9D9D9" stroke-miterlimit="10"/>
<path d="M110 97L84 123" stroke="#D9D9D9" stroke-miterlimit="10"/>
<path d="M167 97L193 123" stroke="#D9D9D9" stroke-miterlimit="10"/>
<path d="M193 97L167 123" stroke="#D9D9D9" stroke-miterlimit="10"/>
<path d="M250 97L276 123" stroke="#D9D9D9" stroke-miterlimit="10"/>
<path d="M276 97L250 123" stroke="#D9D9D9" stroke-miterlimit="10"/>
<path d="M323 24L349 50" stroke="#D9D9D9" stroke-miterlimit="10"/>
<path d="M349 24L323 50" stroke="#D9D9D9" stroke-miterlimit="10"/>
<path d="M406 24L432 50" stroke="#D9D9D9" stroke-miterlimit="10"/>
<path d="M432 24L406 50" stroke="#D9D9D9" stroke-miterlimit="10"/>
<path d="M489 24L515 50" stroke="#D9D9D9" stroke-miterlimit="10"/>
<path d="M515 24L489 50" stroke="#D9D9D9" stroke-miterlimit="10"/>
<path d="M572 24L598 50" stroke="#D9D9D9" stroke-miterlimit="10"/>
<path d="M598 24L572 50" stroke="#D9D9D9" stroke-miterlimit="10"/>
<path d="M323 97L349 123" stroke="#D9D9D9" stroke-miterlimit="10"/>
<path d="M349 97L323 123" stroke="#D9D9D9" stroke-miterlimit="10"/>
<path d="M406 97L432 123" stroke="#D9D9D9" stroke-miterlimit="10"/>
<path d="M432 97L406 123" stroke="#D9D9D9" stroke-miterlimit="10"/>
<path d="M489 97L515 123" stroke="#D9D9D9" stroke-miterlimit="10"/>
<path d="M515 97L489 123" stroke="#D9D9D9" stroke-miterlimit="10"/>
<path d="M572 97L598 123" stroke="#D9D9D9" stroke-miterlimit="10"/>
<path d="M598 97L572 123" stroke="#D9D9D9" stroke-miterlimit="10"/>
<path d="M1 170L27 196" stroke="#D9D9D9" stroke-miterlimit="10"/>
<path d="M27 170L1 196" stroke="#D9D9D9" stroke-miterlimit="10"/>
<path d="M84 170L110 196" stroke="#D9D9D9" stroke-miterlimit="10"/>
<path d="M110 170L84 196" stroke="#D9D9D9" stroke-miterlimit="10"/>
<path d="M167 170L193 196" stroke="#D9D9D9" stroke-miterlimit="10"/>
<path d="M193 170L167 196" stroke="#D9D9D9" stroke-miterlimit="10"/>
<path d="M250 170L276 196" stroke="#0057B7" stroke-miterlimit="10"/>
<path d="M276 170L250 196" stroke="#0057B7" stroke-miterlimit="10"/>
<path d="M1 243L27 269" stroke="#D9D9D9" stroke-miterlimit="10"/>
<path d="M27 243L1 269" stroke="#D9D9D9" stroke-miterlimit="10"/>
<path d="M84 243L110 269" stroke="#D9D9D9" stroke-miterlimit="10"/>
<path d="M110 243L84 269" stroke="#D9D9D9" stroke-miterlimit="10"/>
<path d="M167 243L193 269" stroke="#D9D9D9" stroke-miterlimit="10"/>
<path d="M193 243L167 269" stroke="#D9D9D9" stroke-miterlimit="10"/>
<path d="M250 243L276 269" stroke="#FFDD00" stroke-miterlimit="10"/>
<path d="M276 243L250 269" stroke="#FFDD00" stroke-miterlimit="10"/>
<path d="M1 316L27 342" stroke="#D9D9D9" stroke-miterlimit="10"/>
<path d="M27 316L1 342" stroke="#D9D9D9" stroke-miterlimit="10"/>
<path d="M84 316L110 342" stroke="#D9D9D9" stroke-miterlimit="10"/>
<path d="M110 316L84 342" stroke="#D9D9D9" stroke-miterlimit="10"/>
<path d="M167 316L193 342" stroke="#D9D9D9" stroke-miterlimit="10"/>
<path d="M193 316L167 342" stroke="#D9D9D9" stroke-miterlimit="10"/>
<path d="M250 316L276 342" stroke="#D9D9D9" stroke-miterlimit="10"/>
<path d="M276 316L250 342" stroke="#D9D9D9" stroke-miterlimit="10"/>
<path d="M1 388L27 414" stroke="#D9D9D9" stroke-miterlimit="10"/>
<path d="M27 388L1 414" stroke="#D9D9D9" stroke-miterlimit="10"/>
<path d="M84 388L110 414" stroke="#D9D9D9" stroke-miterlimit="10"/>
<path d="M110 388L84 414" stroke="#D9D9D9" stroke-miterlimit="10"/>
<path d="M167 388L193 414" stroke="#D9D9D9" stroke-miterlimit="10"/>
<path d="M193 388L167 414" stroke="#D9D9D9" stroke-miterlimit="10"/>
<path d="M250 388L276 414" stroke="#D9D9D9" stroke-miterlimit="10"/>
<path d="M276 388L250 414" stroke="#D9D9D9" stroke-miterlimit="10"/>
<path d="M323 170L349 196" stroke="#D9D9D9" stroke-miterlimit="10"/>
<path d="M349 170L323 196" stroke="#D9D9D9" stroke-miterlimit="10"/>
<path d="M406 170L432 196" stroke="#D9D9D9" stroke-miterlimit="10"/>
<path d="M432 170L406 196" stroke="#D9D9D9" stroke-miterlimit="10"/>
<path d="M489 170L515 196" stroke="#D9D9D9" stroke-miterlimit="10"/>
<path d="M515 170L489 196" stroke="#D9D9D9" stroke-miterlimit="10"/>
<path d="M572 170L598 196" stroke="#D9D9D9" stroke-miterlimit="10"/>
<path d="M598 170L572 196" stroke="#D9D9D9" stroke-miterlimit="10"/>
<path d="M323 243L349 269" stroke="#D9D9D9" stroke-miterlimit="10"/>
<path d="M349 243L323 269" stroke="#D9D9D9" stroke-miterlimit="10"/>
<path d="M406 243L432 269" stroke="#D9D9D9" stroke-miterlimit="10"/>
<path d="M432 243L406 269" stroke="#D9D9D9" stroke-miterlimit="10"/>
<path d="M489 243L515 269" stroke="#D9D9D9" stroke-miterlimit="10"/>
<path d="M515 243L489 269" stroke="#D9D9D9" stroke-miterlimit="10"/>
<path d="M572 243L598 269" stroke="#D9D9D9" stroke-miterlimit="10"/>
<path d="M598 243L572 269" stroke="#D9D9D9" stroke-miterlimit="10"/>
<path d="M323 316L349 342" stroke="#D9D9D9" stroke-miterlimit="10"/>
<path d="M349 316L323 342" stroke="#D9D9D9" stroke-miterlimit="10"/>
<path d="M406 316L432 342" stroke="#D9D9D9" stroke-miterlimit="10"/>
<path d="M432 316L406 342" stroke="#D9D9D9" stroke-miterlimit="10"/>
<path d="M489 316L515 342" stroke="#D9D9D9" stroke-miterlimit="10"/>
<path d="M515 316L489 342" stroke="#D9D9D9" stroke-miterlimit="10"/>
<path d="M572 316L598 342" stroke="#D9D9D9" stroke-miterlimit="10"/>
<path d="M598 316L572 342" stroke="#D9D9D9" stroke-miterlimit="10"/>
<path d="M323 388L349 414" stroke="#D9D9D9" stroke-miterlimit="10"/>
<path d="M349 388L323 414" stroke="#D9D9D9" stroke-miterlimit="10"/>
<path d="M406 388L432 414" stroke="#D9D9D9" stroke-miterlimit="10"/>
<path d="M432 388L406 414" stroke="#D9D9D9" stroke-miterlimit="10"/>
<path d="M489 388L515 414" stroke="#D9D9D9" stroke-miterlimit="10"/>
<path d="M515 388L489 414" stroke="#D9D9D9" stroke-miterlimit="10"/>
<path d="M572 388L598 414" stroke="#D9D9D9" stroke-miterlimit="10"/>
<path d="M598 388L572 414" stroke="#D9D9D9" stroke-miterlimit="10"/>
</svg>
