<svg width="599" height="537" viewBox="0 0 599 537" fill="none" xmlns="http://www.w3.org/2000/svg">
<path d="M1 1L27 27" stroke="#D9D9D9" stroke-miterlimit="10"/>
<path d="M27 1L1 27" stroke="#D9D9D9" stroke-miterlimit="10"/>
<path d="M84 1L110 27" stroke="#D9D9D9" stroke-miterlimit="10"/>
<path d="M110 1L84 27" stroke="#D9D9D9" stroke-miterlimit="10"/>
<path d="M167 1L193 27" stroke="#D9D9D9" stroke-miterlimit="10"/>
<path d="M193 1L167 27" stroke="#D9D9D9" stroke-miterlimit="10"/>
<path d="M250 1L276 27" stroke="#D9D9D9" stroke-miterlimit="10"/>
<path d="M276 1L250 27" stroke="#D9D9D9" stroke-miterlimit="10"/>
<path d="M1 74L27 100" stroke="#D9D9D9" stroke-miterlimit="10"/>
<path d="M27 74L1 100" stroke="#D9D9D9" stroke-miterlimit="10"/>
<path d="M84 74L110 100" stroke="#D9D9D9" stroke-miterlimit="10"/>
<path d="M110 74L84 100" stroke="#D9D9D9" stroke-miterlimit="10"/>
<path d="M167 74L193 100" stroke="#D9D9D9" stroke-miterlimit="10"/>
<path d="M193 74L167 100" stroke="#D9D9D9" stroke-miterlimit="10"/>
<path d="M250 74L276 100" stroke="#D9D9D9" stroke-miterlimit="10"/>
<path d="M276 74L250 100" stroke="#D9D9D9" stroke-miterlimit="10"/>
<path d="M1 146L27 172" stroke="#D9D9D9" stroke-miterlimit="10"/>
<path d="M27 146L1 172" stroke="#D9D9D9" stroke-miterlimit="10"/>
<path d="M84 146L110 172" stroke="#D9D9D9" stroke-miterlimit="10"/>
<path d="M110 146L84 172" stroke="#D9D9D9" stroke-miterlimit="10"/>
<path d="M167 146L193 172" stroke="#D9D9D9" stroke-miterlimit="10"/>
<path d="M193 146L167 172" stroke="#D9D9D9" stroke-miterlimit="10"/>
<path d="M250 146L276 172" stroke="#D9D9D9" stroke-miterlimit="10"/>
<path d="M276 146L250 172" stroke="#D9D9D9" stroke-miterlimit="10"/>
<path d="M1 219L27 245" stroke="#D9D9D9" stroke-miterlimit="10"/>
<path d="M27 219L1 245" stroke="#D9D9D9" stroke-miterlimit="10"/>
<path d="M84 219L110 245" stroke="#D9D9D9" stroke-miterlimit="10"/>
<path d="M110 219L84 245" stroke="#D9D9D9" stroke-miterlimit="10"/>
<path d="M167 219L193 245" stroke="#D9D9D9" stroke-miterlimit="10"/>
<path d="M193 219L167 245" stroke="#D9D9D9" stroke-miterlimit="10"/>
<path d="M250 219L276 245" stroke="#D9D9D9" stroke-miterlimit="10"/>
<path d="M276 219L250 245" stroke="#D9D9D9" stroke-miterlimit="10"/>
<path d="M323 1L349 27" stroke="#D9D9D9" stroke-miterlimit="10"/>
<path d="M349 1L323 27" stroke="#D9D9D9" stroke-miterlimit="10"/>
<path d="M406 1L432 27" stroke="#D9D9D9" stroke-miterlimit="10"/>
<path d="M432 1L406 27" stroke="#D9D9D9" stroke-miterlimit="10"/>
<path d="M489 1L515 27" stroke="#D9D9D9" stroke-miterlimit="10"/>
<path d="M515 1L489 27" stroke="#D9D9D9" stroke-miterlimit="10"/>
<path d="M572 1L598 27" stroke="#D9D9D9" stroke-miterlimit="10"/>
<path d="M598 1L572 27" stroke="#D9D9D9" stroke-miterlimit="10"/>
<path d="M323 74L349 100" stroke="#D9D9D9" stroke-miterlimit="10"/>
<path d="M349 74L323 100" stroke="#D9D9D9" stroke-miterlimit="10"/>
<path d="M406 74L432 100" stroke="#D9D9D9" stroke-miterlimit="10"/>
<path d="M432 74L406 100" stroke="#D9D9D9" stroke-miterlimit="10"/>
<path d="M489 74L515 100" stroke="#D9D9D9" stroke-miterlimit="10"/>
<path d="M515 74L489 100" stroke="#D9D9D9" stroke-miterlimit="10"/>
<path d="M572 74L598 100" stroke="#D9D9D9" stroke-miterlimit="10"/>
<path d="M598 74L572 100" stroke="#D9D9D9" stroke-miterlimit="10"/>
<path d="M323 146L349 172" stroke="#D9D9D9" stroke-miterlimit="10"/>
<path d="M349 146L323 172" stroke="#D9D9D9" stroke-miterlimit="10"/>
<path d="M406 146L432 172" stroke="#D9D9D9" stroke-miterlimit="10"/>
<path d="M432 146L406 172" stroke="#D9D9D9" stroke-miterlimit="10"/>
<path d="M489 146L515 172" stroke="#D9D9D9" stroke-miterlimit="10"/>
<path d="M515 146L489 172" stroke="#D9D9D9" stroke-miterlimit="10"/>
<path d="M572 146L598 172" stroke="#D9D9D9" stroke-miterlimit="10"/>
<path d="M598 146L572 172" stroke="#D9D9D9" stroke-miterlimit="10"/>
<path d="M323 219L349 245" stroke="#D9D9D9" stroke-miterlimit="10"/>
<path d="M349 219L323 245" stroke="#D9D9D9" stroke-miterlimit="10"/>
<path d="M406 219L432 245" stroke="#D9D9D9" stroke-miterlimit="10"/>
<path d="M432 219L406 245" stroke="#D9D9D9" stroke-miterlimit="10"/>
<path d="M489 219L515 245" stroke="#D9D9D9" stroke-miterlimit="10"/>
<path d="M515 219L489 245" stroke="#D9D9D9" stroke-miterlimit="10"/>
<path d="M572 219L598 245" stroke="#D9D9D9" stroke-miterlimit="10"/>
<path d="M598 219L572 245" stroke="#D9D9D9" stroke-miterlimit="10"/>
<path d="M1 292L27 318" stroke="#D9D9D9" stroke-miterlimit="10"/>
<path d="M27 292L1 318" stroke="#D9D9D9" stroke-miterlimit="10"/>
<path d="M84 292L110 318" stroke="#D9D9D9" stroke-miterlimit="10"/>
<path d="M110 292L84 318" stroke="#D9D9D9" stroke-miterlimit="10"/>
<path d="M167 292L193 318" stroke="#D9D9D9" stroke-miterlimit="10"/>
<path d="M193 292L167 318" stroke="#D9D9D9" stroke-miterlimit="10"/>
<path d="M250 292L276 318" stroke="#D9D9D9" stroke-miterlimit="10"/>
<path d="M276 292L250 318" stroke="#D9D9D9" stroke-miterlimit="10"/>
<path d="M1 365L27 391" stroke="#D9D9D9" stroke-miterlimit="10"/>
<path d="M27 365L1 391" stroke="#D9D9D9" stroke-miterlimit="10"/>
<path d="M84 365L110 391" stroke="#D9D9D9" stroke-miterlimit="10"/>
<path d="M110 365L84 391" stroke="#D9D9D9" stroke-miterlimit="10"/>
<path d="M167 365L193 391" stroke="#D9D9D9" stroke-miterlimit="10"/>
<path d="M193 365L167 391" stroke="#D9D9D9" stroke-miterlimit="10"/>
<path d="M250 365L276 391" stroke="#D9D9D9" stroke-miterlimit="10"/>
<path d="M276 365L250 391" stroke="#D9D9D9" stroke-miterlimit="10"/>
<path d="M1 438L27 464" stroke="#D9D9D9" stroke-miterlimit="10"/>
<path d="M27 438L1 464" stroke="#D9D9D9" stroke-miterlimit="10"/>
<path d="M84 438L110 464" stroke="#D9D9D9" stroke-miterlimit="10"/>
<path d="M110 438L84 464" stroke="#D9D9D9" stroke-miterlimit="10"/>
<path d="M167 438L193 464" stroke="#D9D9D9" stroke-miterlimit="10"/>
<path d="M193 438L167 464" stroke="#D9D9D9" stroke-miterlimit="10"/>
<path d="M250 438L276 464" stroke="#D9D9D9" stroke-miterlimit="10"/>
<path d="M276 438L250 464" stroke="#D9D9D9" stroke-miterlimit="10"/>
<path d="M1 510L27 536" stroke="#D9D9D9" stroke-miterlimit="10"/>
<path d="M27 510L1 536" stroke="#D9D9D9" stroke-miterlimit="10"/>
<path d="M84 510L110 536" stroke="#D9D9D9" stroke-miterlimit="10"/>
<path d="M110 510L84 536" stroke="#D9D9D9" stroke-miterlimit="10"/>
<path d="M167 510L193 536" stroke="#D9D9D9" stroke-miterlimit="10"/>
<path d="M193 510L167 536" stroke="#D9D9D9" stroke-miterlimit="10"/>
<path d="M250 510L276 536" stroke="#D9D9D9" stroke-miterlimit="10"/>
<path d="M276 510L250 536" stroke="#D9D9D9" stroke-miterlimit="10"/>
<path d="M323 292L349 318" stroke="#D9D9D9" stroke-miterlimit="10"/>
<path d="M349 292L323 318" stroke="#D9D9D9" stroke-miterlimit="10"/>
<path d="M406 292L432 318" stroke="#D9D9D9" stroke-miterlimit="10"/>
<path d="M432 292L406 318" stroke="#D9D9D9" stroke-miterlimit="10"/>
<path d="M489 292L515 318" stroke="#D9D9D9" stroke-miterlimit="10"/>
<path d="M515 292L489 318" stroke="#D9D9D9" stroke-miterlimit="10"/>
<path d="M572 292L598 318" stroke="#D9D9D9" stroke-miterlimit="10"/>
<path d="M598 292L572 318" stroke="#D9D9D9" stroke-miterlimit="10"/>
<path d="M323 365L349 391" stroke="#D9D9D9" stroke-miterlimit="10"/>
<path d="M349 365L323 391" stroke="#D9D9D9" stroke-miterlimit="10"/>
<path d="M406 365L432 391" stroke="#D9D9D9" stroke-miterlimit="10"/>
<path d="M432 365L406 391" stroke="#D9D9D9" stroke-miterlimit="10"/>
<path d="M489 365L515 391" stroke="#D9D9D9" stroke-miterlimit="10"/>
<path d="M515 365L489 391" stroke="#D9D9D9" stroke-miterlimit="10"/>
<path d="M572 365L598 391" stroke="#D9D9D9" stroke-miterlimit="10"/>
<path d="M598 365L572 391" stroke="#D9D9D9" stroke-miterlimit="10"/>
<path d="M323 438L349 464" stroke="#D9D9D9" stroke-miterlimit="10"/>
<path d="M349 438L323 464" stroke="#D9D9D9" stroke-miterlimit="10"/>
<path d="M406 438L432 464" stroke="#D9D9D9" stroke-miterlimit="10"/>
<path d="M432 438L406 464" stroke="#D9D9D9" stroke-miterlimit="10"/>
<path d="M489 438L515 464" stroke="#D9D9D9" stroke-miterlimit="10"/>
<path d="M515 438L489 464" stroke="#D9D9D9" stroke-miterlimit="10"/>
<path d="M572 438L598 464" stroke="#D9D9D9" stroke-miterlimit="10"/>
<path d="M598 438L572 464" stroke="#D9D9D9" stroke-miterlimit="10"/>
<path d="M323 510L349 536" stroke="#D9D9D9" stroke-miterlimit="10"/>
<path d="M349 510L323 536" stroke="#D9D9D9" stroke-miterlimit="10"/>
<path d="M406 510L432 536" stroke="#D9D9D9" stroke-miterlimit="10"/>
<path d="M432 510L406 536" stroke="#D9D9D9" stroke-miterlimit="10"/>
<path d="M489 510L515 536" stroke="#D9D9D9" stroke-miterlimit="10"/>
<path d="M515 510L489 536" stroke="#D9D9D9" stroke-miterlimit="10"/>
<path d="M572 510L598 536" stroke="#D9D9D9" stroke-miterlimit="10"/>
<path d="M598 510L572 536" stroke="#D9D9D9" stroke-miterlimit="10"/>
</svg>
