<svg width="44" height="44" viewBox="0 0 44 44" fill="none" xmlns="http://www.w3.org/2000/svg">
<g filter="url(#filter0_d_54_7313)">
<path d="M22 10C15.3743 10 10 15.3743 10 22C10 28.6257 15.3743 34 22 34C28.6257 34 34 28.6257 34 22C34 15.3743 28.6257 10 22 10ZM16.2486 16.2143H27.7514C27.9314 16.2143 28.1114 16.24 28.2743 16.3L22 22.3343L15.7257 16.3C15.8886 16.24 16.0686 16.2143 16.2486 16.2143ZM14.5686 26.1143V17.8857C14.5686 17.68 14.6114 17.4743 14.6885 17.2857L19.0428 21.4772L14.68 26.6885C14.6029 26.5086 14.5686 26.3114 14.5686 26.1143ZM27.7514 27.7857H16.2486C16.06 27.7857 15.88 27.7514 15.7086 27.6914L20.0714 22.4714L21.5028 23.8428C21.64 23.98 21.82 24.0486 22 24.0486C22.18 24.0486 22.36 23.98 22.4972 23.8428L23.9286 22.4714L28.3 27.6914C28.12 27.7514 27.94 27.7857 27.7514 27.7857ZM29.4314 26.1143C29.4314 26.3114 29.3971 26.5086 29.32 26.6885L24.9572 21.4772L29.3115 17.2857C29.3886 17.4743 29.4314 17.68 29.4314 17.8857V26.1143Z" fill="url(#paint0_linear_54_7313)"/>
<path d="M22 10C15.3743 10 10 15.3743 10 22C10 28.6257 15.3743 34 22 34C28.6257 34 34 28.6257 34 22C34 15.3743 28.6257 10 22 10ZM16.2486 16.2143H27.7514C27.9314 16.2143 28.1114 16.24 28.2743 16.3L22 22.3343L15.7257 16.3C15.8886 16.24 16.0686 16.2143 16.2486 16.2143ZM14.5686 26.1143V17.8857C14.5686 17.68 14.6114 17.4743 14.6885 17.2857L19.0428 21.4772L14.68 26.6885C14.6029 26.5086 14.5686 26.3114 14.5686 26.1143ZM27.7514 27.7857H16.2486C16.06 27.7857 15.88 27.7514 15.7086 27.6914L20.0714 22.4714L21.5028 23.8428C21.64 23.98 21.82 24.0486 22 24.0486C22.18 24.0486 22.36 23.98 22.4972 23.8428L23.9286 22.4714L28.3 27.6914C28.12 27.7514 27.94 27.7857 27.7514 27.7857ZM29.4314 26.1143C29.4314 26.3114 29.3971 26.5086 29.32 26.6885L24.9572 21.4772L29.3115 17.2857C29.3886 17.4743 29.4314 17.68 29.4314 17.8857V26.1143Z" fill="white" fill-opacity="0.9"/>
</g>
<defs>
<filter id="filter0_d_54_7313" x="0" y="0" width="44" height="44" filterUnits="userSpaceOnUse" color-interpolation-filters="sRGB">
<feFlood flood-opacity="0" result="BackgroundImageFix"/>
<feColorMatrix in="SourceAlpha" type="matrix" values="0 0 0 0 0 0 0 0 0 0 0 0 0 0 0 0 0 0 127 0" result="hardAlpha"/>
<feOffset/>
<feGaussianBlur stdDeviation="5"/>
<feColorMatrix type="matrix" values="0 0 0 0 0.591667 0 0 0 0 0.7305 0 0 0 0 1 0 0 0 0.3 0"/>
<feBlend mode="normal" in2="BackgroundImageFix" result="effect1_dropShadow_54_7313"/>
<feBlend mode="normal" in="SourceGraphic" in2="effect1_dropShadow_54_7313" result="shape"/>
</filter>
<linearGradient id="paint0_linear_54_7313" x1="20.7746" y1="30.7735" x2="54.654" y2="67.7389" gradientUnits="userSpaceOnUse">
<stop stop-color="white"/>
<stop offset="1" stop-color="white" stop-opacity="0"/>
</linearGradient>
</defs>
</svg>
