<svg width="282" height="447" viewBox="0 0 282 447" fill="none" xmlns="http://www.w3.org/2000/svg">
<g opacity="0.5">
<path d="M372.952 322.952C441.462 254.442 441.462 143.366 372.952 74.8558C304.442 6.34589 193.366 6.34587 124.856 74.8557C56.3458 143.366 56.3459 254.442 124.856 322.952C193.366 391.462 304.442 391.462 372.952 322.952Z" stroke="#D9D9D9" stroke-width="2" stroke-miterlimit="10"/>
<path d="M344.323 320.145C402.825 261.644 402.825 166.794 344.323 108.293C285.822 49.7919 190.973 49.7919 132.472 108.293C73.9705 166.794 73.9705 261.644 132.472 320.145C190.973 378.646 285.822 378.646 344.323 320.145Z" stroke="#D9D9D9" stroke-width="1.8" stroke-miterlimit="10"/>
<path d="M227.882 353.722C296.461 353.722 352.056 298.128 352.056 229.549C352.056 160.97 296.461 105.376 227.882 105.376C159.304 105.376 103.709 160.97 103.709 229.549C103.709 298.128 159.304 353.722 227.882 353.722Z" stroke="#D9D9D9" stroke-width="1.6" stroke-miterlimit="10"/>
<path d="M217.366 343.398C271.778 343.398 315.887 299.289 315.887 244.878C315.887 190.467 271.778 146.358 217.366 146.358C162.955 146.358 118.846 190.467 118.846 244.878C118.846 299.289 162.955 343.398 217.366 343.398Z" stroke="#D9D9D9" stroke-width="1.4" stroke-miterlimit="10"/>
<path d="M206.85 333.099C247.107 333.099 279.741 300.464 279.741 260.207C279.741 219.95 247.107 187.316 206.85 187.316C166.593 187.316 133.958 219.95 133.958 260.207C133.958 300.464 166.593 333.099 206.85 333.099Z" stroke="#D9D9D9" stroke-width="1.2" stroke-miterlimit="10"/>
<path d="M196.31 322.799C222.413 322.799 243.573 301.639 243.573 275.536C243.573 249.434 222.413 228.274 196.31 228.274C170.208 228.274 149.047 249.434 149.047 275.536C149.047 301.639 170.208 322.799 196.31 322.799Z" stroke="#D9D9D9" stroke-miterlimit="10"/>
</g>
</svg>
