<svg width="126" height="335" viewBox="0 0 126 335" fill="none" xmlns="http://www.w3.org/2000/svg">
<path d="M58.3275 1H-8.34424V67.6719H58.3275V1Z" stroke="white" stroke-width="0.25" stroke-miterlimit="10"/>
<path d="M124.999 1H58.3276V67.6719H124.999V1Z" stroke="white" stroke-width="0.25" stroke-miterlimit="10"/>
<path d="M58.3275 67.672H-8.34424V134.344H58.3275V67.672Z" stroke="white" stroke-width="0.25" stroke-miterlimit="10"/>
<path d="M124.999 67.672H58.3276V134.344H124.999V67.672Z" stroke="white" stroke-width="0.25" stroke-miterlimit="10"/>
<path d="M58.3275 134.343H-8.34424V201.015H58.3275V134.343Z" stroke="white" stroke-width="0.25" stroke-miterlimit="10"/>
<path d="M124.999 134.343H58.3276V201.015H124.999V134.343Z" stroke="white" stroke-width="0.25" stroke-miterlimit="10"/>
<path d="M58.3275 200.984H-8.34424V267.656H58.3275V200.984Z" stroke="white" stroke-width="0.25" stroke-miterlimit="10"/>
<path d="M124.999 200.984H58.3276V267.656H124.999V200.984Z" stroke="white" stroke-width="0.25" stroke-miterlimit="10"/>
<path d="M58.3275 267.656H-8.34424V334.328H58.3275V267.656Z" stroke="white" stroke-width="0.25" stroke-miterlimit="10"/>
<path d="M124.999 267.656H58.3276V334.328H124.999V267.656Z" stroke="white" stroke-width="0.25" stroke-miterlimit="10"/>
</svg>
