<svg width="265" height="335" viewBox="0 0 265 335" fill="none" xmlns="http://www.w3.org/2000/svg">
<path d="M64.016 1H-2.65576V67.6719H64.016V1Z" stroke="white" stroke-width="0.25" stroke-miterlimit="10"/>
<path d="M130.656 1H63.9839V67.6719H130.656V1Z" stroke="white" stroke-width="0.25" stroke-miterlimit="10"/>
<path d="M197.328 1H130.656V67.6719H197.328V1Z" stroke="white" stroke-width="0.25" stroke-miterlimit="10"/>
<path d="M263.999 1H197.328V67.6719H263.999V1Z" stroke="white" stroke-width="0.25" stroke-miterlimit="10"/>
<path d="M64.016 67.672H-2.65576V134.344H64.016V67.672Z" stroke="white" stroke-width="0.25" stroke-miterlimit="10"/>
<path d="M130.656 67.672H63.9839V134.344H130.656V67.672Z" stroke="white" stroke-width="0.25" stroke-miterlimit="10"/>
<path d="M197.328 67.672H130.656V134.344H197.328V67.672Z" stroke="white" stroke-width="0.25" stroke-miterlimit="10"/>
<path d="M263.999 67.672H197.328V134.344H263.999V67.672Z" stroke="white" stroke-width="0.25" stroke-miterlimit="10"/>
<path d="M64.016 134.343H-2.65576V201.015H64.016V134.343Z" stroke="white" stroke-width="0.25" stroke-miterlimit="10"/>
<path d="M130.656 134.343H63.9839V201.015H130.656V134.343Z" stroke="white" stroke-width="0.25" stroke-miterlimit="10"/>
<path d="M197.328 134.343H130.656V201.015H197.328V134.343Z" stroke="white" stroke-width="0.25" stroke-miterlimit="10"/>
<path d="M263.999 134.343H197.328V201.015H263.999V134.343Z" stroke="white" stroke-width="0.25" stroke-miterlimit="10"/>
<path d="M64.016 200.984H-2.65576V267.656H64.016V200.984Z" stroke="white" stroke-width="0.25" stroke-miterlimit="10"/>
<path d="M130.656 200.984H63.9839V267.656H130.656V200.984Z" stroke="white" stroke-width="0.25" stroke-miterlimit="10"/>
<path d="M197.328 200.984H130.656V267.656H197.328V200.984Z" stroke="white" stroke-width="0.25" stroke-miterlimit="10"/>
<path d="M263.999 200.984H197.328V267.656H263.999V200.984Z" stroke="white" stroke-width="0.25" stroke-miterlimit="10"/>
<path d="M64.016 267.656H-2.65576V334.328H64.016V267.656Z" stroke="white" stroke-width="0.25" stroke-miterlimit="10"/>
<path d="M130.656 267.656H63.9839V334.328H130.656V267.656Z" stroke="white" stroke-width="0.25" stroke-miterlimit="10"/>
<path d="M197.328 267.656H130.656V334.328H197.328V267.656Z" stroke="white" stroke-width="0.25" stroke-miterlimit="10"/>
<path d="M263.999 267.656H197.328V334.328H263.999V267.656Z" stroke="white" stroke-width="0.25" stroke-miterlimit="10"/>
</svg>
