<svg width="195" height="492" viewBox="0 0 195 492" fill="none" xmlns="http://www.w3.org/2000/svg">
<path d="M381.019 350.552C381.019 423.288 322.055 482.253 249.318 482.253C176.582 482.253 117.617 423.288 117.617 350.552C117.617 277.815 176.582 218.851 249.318 218.851C322.055 218.851 381.019 277.815 381.019 350.552Z" fill="#24252E" stroke="#FE1646" stroke-width="19"/>
<path d="M0 209.351H112.586" stroke="#D9D9D9" stroke-width="2" stroke-miterlimit="10"/>
<path d="M61.3389 61.3013L140.913 140.912" stroke="#D9D9D9" stroke-width="2" stroke-miterlimit="10"/>
<path d="M140.913 277.789L61.3389 357.364" stroke="#D9D9D9" stroke-width="2" stroke-miterlimit="10"/>
<path d="M15.1372 131.182L119.579 173.204" stroke="#D9D9D9" stroke-width="2" stroke-miterlimit="10"/>
<path d="M173.204 299.124L131.183 403.566" stroke="#D9D9D9" stroke-width="2" stroke-miterlimit="10"/>
<path d="M127.291 16.7581L171.402 120.298" stroke="#D9D9D9" stroke-width="2" stroke-miterlimit="10"/>
<path d="M120.299 247.264L16.7588 291.412" stroke="#D9D9D9" stroke-width="2" stroke-miterlimit="10"/>
<path d="M4.50488 166.213L114.64 189.422" stroke="#D9D9D9" stroke-width="2" stroke-miterlimit="10"/>
<path d="M189.422 304.062L166.249 414.198" stroke="#D9D9D9" stroke-width="2" stroke-miterlimit="10"/>
<path d="M94.9634 33.9856L156.482 128.264" stroke="#D9D9D9" stroke-width="2" stroke-miterlimit="10"/>
<path d="M128.3 262.219L34.0215 323.702" stroke="#D9D9D9" stroke-width="2" stroke-miterlimit="10"/>
<path d="M35.3906 92.8728L128.948 155.473" stroke="#D9D9D9" stroke-width="2" stroke-miterlimit="10"/>
<path d="M155.509 289.754L92.873 383.275" stroke="#D9D9D9" stroke-width="2" stroke-miterlimit="10"/>
<path d="M168.699 3.96487L190.575 114.389" stroke="#D9D9D9" stroke-width="2" stroke-miterlimit="10"/>
<path d="M114.424 228.127L4.00049 249.967" stroke="#D9D9D9" stroke-width="2" stroke-miterlimit="10"/>
</svg>
