<svg width="40" height="40" viewBox="0 0 40 40" fill="none" xmlns="http://www.w3.org/2000/svg">
<path fill-rule="evenodd" clip-rule="evenodd" d="M19.8111 26.5234C15.8511 26.5234 11.1294 27.0101 11.1294 29.3268C11.1294 31.6618 15.8511 32.1518 19.8111 32.1518C23.7711 32.1518 28.4911 31.6668 28.4911 29.3551C28.4911 27.0151 23.7711 26.5234 19.8111 26.5234ZM19.8111 34.6518C17.0461 34.6518 8.62939 34.6518 8.62939 29.3268C8.62939 24.0234 17.0461 24.0234 19.8111 24.0234C22.5761 24.0234 30.9911 24.0234 30.9911 29.3551C30.9911 34.6518 22.8694 34.6518 19.8111 34.6518Z" fill="#FE1646"/>
<path fill-rule="evenodd" clip-rule="evenodd" d="M19.8112 9.16675C16.9912 9.16675 14.6978 11.4617 14.6978 14.2817C14.6928 15.6484 15.2162 16.9267 16.1745 17.8917C17.1328 18.8567 18.4095 19.3917 19.7695 19.3967L19.8112 20.6467V19.3967C22.6312 19.3967 24.9262 17.1034 24.9262 14.2817C24.9262 11.4617 22.6312 9.16675 19.8112 9.16675ZM19.8112 21.8967H19.7662C17.7328 21.8901 15.8278 21.0934 14.4012 19.6534C12.9712 18.2151 12.1895 16.3051 12.1978 14.2767C12.1978 10.0834 15.6128 6.66675 19.8112 6.66675C24.0112 6.66675 27.4262 10.0834 27.4262 14.2817C27.4262 18.4801 24.0112 21.8967 19.8112 21.8967Z" fill="#FE1646"/>
</svg>
