<svg width="41" height="40" viewBox="0 0 41 40" fill="none" xmlns="http://www.w3.org/2000/svg">
<mask id="mask0_125_2522" style="mask-type:luminance" maskUnits="userSpaceOnUse" x="3" y="8" width="27" height="27">
<path fill-rule="evenodd" clip-rule="evenodd" d="M3.66699 8.33374H29.5008V34.1693H3.66699V8.33374Z" fill="white"/>
</mask>
<g mask="url(#mask0_125_2522)">
<path fill-rule="evenodd" clip-rule="evenodd" d="M11.7455 10.836C11.0138 10.836 10.5422 10.836 10.4605 10.8393C9.2305 10.891 8.0955 11.4127 7.27717 12.306C6.51384 13.141 6.1205 14.2077 6.17217 15.3143C6.17217 20.136 6.17384 27.3727 6.1855 27.7693C6.3755 30.0777 8.53884 31.8427 11.0155 31.6527C15.5988 31.6593 22.3888 31.6743 22.7072 31.6627C23.9322 31.6127 25.0688 31.0927 25.8872 30.201C26.6522 29.3693 27.0455 28.3027 26.9972 27.201C26.9955 27.1827 26.9955 27.1643 26.9955 27.146C26.9972 22.3793 26.9972 15.1477 26.9855 14.7593C26.7972 12.4393 24.6238 10.6527 22.1338 10.8477C18.6905 10.8427 13.9922 10.836 11.7455 10.836ZM10.5772 34.1693C7.05384 34.171 3.9805 31.471 3.6905 27.9293C3.6855 27.861 3.66884 27.6527 3.67384 15.371C3.59384 13.6527 4.21717 11.946 5.43384 10.6177C6.70384 9.23098 8.4555 8.42265 10.3672 8.34098C10.5988 8.32432 18.6122 8.34432 22.0438 8.35098C25.7938 8.08765 29.1788 10.871 29.4805 14.606C29.4938 14.7877 29.4988 18.996 29.4955 27.121C29.5655 28.881 28.9388 30.576 27.7288 31.8927C26.4572 33.2777 24.7038 34.0827 22.7938 34.161C22.5605 34.1777 14.5438 34.156 11.1072 34.1493C10.9305 34.1627 10.7538 34.1693 10.5772 34.1693Z" fill="#FE1646"/>
</g>
<path fill-rule="evenodd" clip-rule="evenodd" d="M35.0308 30.5823C34.2791 30.5823 33.5374 30.3239 32.9258 29.8223L27.4574 25.3289C26.9241 24.8906 26.8474 24.1023 27.2858 23.5689C27.7224 23.0373 28.5108 22.9573 29.0441 23.3973L34.5108 27.8906C34.8791 28.1906 35.2491 28.0673 35.3924 27.9973C35.5358 27.9306 35.8674 27.7223 35.8674 27.2489L35.8874 15.0006C35.8891 14.5273 35.5558 14.3189 35.4124 14.2506C35.2708 14.1839 34.8958 14.0589 34.5308 14.3589L29.0424 18.8506C28.5058 19.2889 27.7208 19.2106 27.2841 18.6739C26.8458 18.1406 26.9258 17.3539 27.4591 16.9173L32.9474 12.4239C33.9541 11.5989 35.3091 11.4373 36.4841 11.9923C37.6591 12.5506 38.3891 13.7039 38.3874 15.0039L38.3674 27.2523C38.3658 28.5523 37.6341 29.7056 36.4608 30.2589C36.0008 30.4773 35.5141 30.5823 35.0308 30.5823Z" fill="#FE1646"/>
</svg>
