<svg width="44" height="44" viewBox="0 0 44 44" fill="none" xmlns="http://www.w3.org/2000/svg">
<g filter="url(#filter0_d_54_7310)">
<path d="M20.5054 24.2483L24.4088 22.0001L20.5054 19.752V24.2483Z" fill="url(#paint0_linear_54_7310)"/>
<path d="M20.5054 24.2483L24.4088 22.0001L20.5054 19.752V24.2483Z" fill="white" fill-opacity="0.9"/>
</g>
<g filter="url(#filter1_d_54_7310)">
<path d="M22 10C15.3736 10 10 15.3736 10 22C10 28.6264 15.3736 34 22 34C28.6264 34 34 28.6264 34 22C34 15.3736 28.6264 10 22 10ZM29.4982 22.0123C29.4982 22.0123 29.4982 24.4459 29.1895 25.6194C29.0164 26.2618 28.5099 26.7682 27.8676 26.9411C26.6941 27.25 22 27.25 22 27.25C22 27.25 17.3182 27.25 16.1324 26.9288C15.4901 26.756 14.9836 26.2493 14.8105 25.607C14.5016 24.4459 14.5016 22 14.5016 22C14.5016 22 14.5016 19.5665 14.8105 18.393C14.9834 17.7507 15.5023 17.2318 16.1324 17.0589C17.3059 16.75 22 16.75 22 16.75C22 16.75 26.6941 16.75 27.8676 17.0712C28.5099 17.244 29.0164 17.7507 29.1895 18.393C29.5106 19.5665 29.4982 22.0123 29.4982 22.0123Z" fill="url(#paint1_linear_54_7310)"/>
<path d="M22 10C15.3736 10 10 15.3736 10 22C10 28.6264 15.3736 34 22 34C28.6264 34 34 28.6264 34 22C34 15.3736 28.6264 10 22 10ZM29.4982 22.0123C29.4982 22.0123 29.4982 24.4459 29.1895 25.6194C29.0164 26.2618 28.5099 26.7682 27.8676 26.9411C26.6941 27.25 22 27.25 22 27.25C22 27.25 17.3182 27.25 16.1324 26.9288C15.4901 26.756 14.9836 26.2493 14.8105 25.607C14.5016 24.4459 14.5016 22 14.5016 22C14.5016 22 14.5016 19.5665 14.8105 18.393C14.9834 17.7507 15.5023 17.2318 16.1324 17.0589C17.3059 16.75 22 16.75 22 16.75C22 16.75 26.6941 16.75 27.8676 17.0712C28.5099 17.244 29.0164 17.7507 29.1895 18.393C29.5106 19.5665 29.4982 22.0123 29.4982 22.0123Z" fill="white" fill-opacity="0.9"/>
</g>
<defs>
<filter id="filter0_d_54_7310" x="10.5054" y="9.75195" width="23.9034" height="24.4963" filterUnits="userSpaceOnUse" color-interpolation-filters="sRGB">
<feFlood flood-opacity="0" result="BackgroundImageFix"/>
<feColorMatrix in="SourceAlpha" type="matrix" values="0 0 0 0 0 0 0 0 0 0 0 0 0 0 0 0 0 0 127 0" result="hardAlpha"/>
<feOffset/>
<feGaussianBlur stdDeviation="5"/>
<feColorMatrix type="matrix" values="0 0 0 0 0.591667 0 0 0 0 0.7305 0 0 0 0 1 0 0 0 0.3 0"/>
<feBlend mode="normal" in2="BackgroundImageFix" result="effect1_dropShadow_54_7310"/>
<feBlend mode="normal" in="SourceGraphic" in2="effect1_dropShadow_54_7310" result="shape"/>
</filter>
<filter id="filter1_d_54_7310" x="0" y="0" width="44" height="44" filterUnits="userSpaceOnUse" color-interpolation-filters="sRGB">
<feFlood flood-opacity="0" result="BackgroundImageFix"/>
<feColorMatrix in="SourceAlpha" type="matrix" values="0 0 0 0 0 0 0 0 0 0 0 0 0 0 0 0 0 0 127 0" result="hardAlpha"/>
<feOffset/>
<feGaussianBlur stdDeviation="5"/>
<feColorMatrix type="matrix" values="0 0 0 0 0.591667 0 0 0 0 0.7305 0 0 0 0 1 0 0 0 0.3 0"/>
<feBlend mode="normal" in2="BackgroundImageFix" result="effect1_dropShadow_54_7310"/>
<feBlend mode="normal" in="SourceGraphic" in2="effect1_dropShadow_54_7310" result="shape"/>
</filter>
<linearGradient id="paint0_linear_54_7310" x1="22.2578" y1="23.6438" x2="28.6198" y2="29.67" gradientUnits="userSpaceOnUse">
<stop stop-color="white"/>
<stop offset="1" stop-color="white" stop-opacity="0"/>
</linearGradient>
<linearGradient id="paint1_linear_54_7310" x1="20.7746" y1="30.7735" x2="54.654" y2="67.7389" gradientUnits="userSpaceOnUse">
<stop stop-color="white"/>
<stop offset="1" stop-color="white" stop-opacity="0"/>
</linearGradient>
</defs>
</svg>
